<svg xmlns="http://www.w3.org/2000/svg" xmlns:xlink="http://www.w3.org/1999/xlink" width="48" height="48" viewBox="0 0 48 48"><defs><clipPath id="a"><rect width="48" height="48" transform="translate(429 619)" fill="#c6ced2" stroke="#707070" stroke-width="1"/></clipPath></defs><g transform="translate(-429 -619)" clip-path="url(#a)"><g transform="translate(417 609.501)"><path d="M55.888,21.766a1.185,1.185,0,0,0-.356-.889L43.681,9.8a1.185,1.185,0,0,0-.83-.3H25.311A7.111,7.111,0,0,0,18.2,16.61V50.388A7.111,7.111,0,0,0,25.311,57.5H48.777a7.111,7.111,0,0,0,7.111-7.111ZM44.037,13.41l7.644,7.17H45.222A1.185,1.185,0,0,1,44.037,19.4Zm4.741,41.659H25.311a4.741,4.741,0,0,1-4.741-4.741V16.61a4.741,4.741,0,0,1,4.741-4.741H41.666V19.4a3.555,3.555,0,0,0,3.555,3.555h8.3V50.388a4.741,4.741,0,0,1-4.741,4.741Z" transform="translate(-0.2 0)" fill="#c6ced2"/><path d="M53.913,54.913H47.187V48.187a1.387,1.387,0,0,0-2.774,0v6.726H37.687a1.387,1.387,0,1,0,0,2.774h6.726v6.726a1.387,1.387,0,0,0,2.774,0V57.687h6.726a1.387,1.387,0,0,0,0-2.774Z" transform="translate(-9.3 -20.301)" fill="#c6ced2"/></g></g></svg>