<svg xmlns="http://www.w3.org/2000/svg" xmlns:xlink="http://www.w3.org/1999/xlink" width="48" height="48" viewBox="0 0 48 48"><defs><clipPath id="a"><rect width="48" height="48" transform="translate(628 53)" fill="#c6ced2" stroke="#707070" stroke-width="1"/></clipPath></defs><g transform="translate(-628 -53)" clip-path="url(#a)"><g transform="translate(614.5 42.5)"><path d="M46.8,10.5H27.474a1.247,1.247,0,0,0-1.247,1.247v5.61h-3.74A1.247,1.247,0,0,0,21.24,18.6v5.61H18.747A1.247,1.247,0,0,0,17.5,25.461V53.513A4.987,4.987,0,0,0,22.487,58.5h29.3a4.987,4.987,0,0,0,4.987-4.987V25.461a1.247,1.247,0,0,0-1.247-1.247H53.032V18.6a1.247,1.247,0,0,0-1.247-1.247h-3.74v-5.61A1.247,1.247,0,0,0,46.8,10.5ZM28.721,12.994H45.552v4.364H28.721ZM54.279,53.513a2.494,2.494,0,0,1-2.494,2.494h-29.3a2.494,2.494,0,0,1-2.494-2.494V26.708H54.279Zm-3.74-29.3H23.734V19.851H50.539Z" fill="#c6ced2"/><path d="M50.206,40.5H36.676A1.176,1.176,0,0,0,35.5,41.676v7.647A1.176,1.176,0,0,0,36.676,50.5H50.206a1.176,1.176,0,0,0,1.176-1.176V41.676A1.176,1.176,0,0,0,50.206,40.5Zm-1.176,7.647H37.853V42.853H49.029Z" transform="translate(-6 -10)" fill="#c6ced2"/></g></g></svg>