<svg xmlns="http://www.w3.org/2000/svg" xmlns:xlink="http://www.w3.org/1999/xlink" width="46" height="45.531" viewBox="0 0 46 45.531">
  <defs>
    <clipPath id="clip-path">
      <rect id="Rectangle_33" data-name="Rectangle 33" width="46" height="45.531" transform="translate(1 1.725)" fill="#c6ced2" stroke="#707070" stroke-width="1"/>
    </clipPath>
  </defs>
  <g id="best-seller-icon" transform="translate(-1 -1.725)" clip-path="url(#clip-path)">
    <g id="Group_125" data-name="Group 125" transform="translate(1.763 2.194)">
      <path id="Path_148" data-name="Path 148" d="M45.421,20.268l-1.643-1.924a3.494,3.494,0,0,1-.845-2.065L42.7,13.7a7.067,7.067,0,0,0-6.571-6.571l-2.535-.188a3.679,3.679,0,0,1-2.065-.845L29.6,4.45a7.185,7.185,0,0,0-9.341,0L18.338,6.093a3.494,3.494,0,0,1-2.065.845l-2.629.141A7.15,7.15,0,0,0,7.026,13.65l-.188,2.535a3.678,3.678,0,0,1-.845,2.065L4.35,20.174a7.185,7.185,0,0,0,0,9.341L5.993,31.44a3.494,3.494,0,0,1,.845,2.065l.188,2.676A7.067,7.067,0,0,0,13.6,42.752l2.535.188a3.678,3.678,0,0,1,2.065.845l1.924,1.643a7.07,7.07,0,0,0,4.647,1.737,6.982,6.982,0,0,0,4.647-1.737l1.924-1.643a3.494,3.494,0,0,1,2.065-.845l2.535-.188a7.15,7.15,0,0,0,6.618-6.571l.188-2.535a3.679,3.679,0,0,1,.845-2.065l1.643-1.924A7.038,7.038,0,0,0,45.421,20.268Zm-2.676,6.994L41.1,29.187h0a7.043,7.043,0,0,0-1.69,4.131l-.188,2.535a3.623,3.623,0,0,1-3.333,3.333l-2.535.188a7.5,7.5,0,0,0-4.131,1.69L27.209,42.8a3.632,3.632,0,0,1-4.741,0l-1.924-1.643a7.043,7.043,0,0,0-4.131-1.69l-2.535-.188a3.623,3.623,0,0,1-3.333-3.333l-.188-2.535a7.5,7.5,0,0,0-1.69-4.131l-1.69-2.018a3.632,3.632,0,0,1,0-4.741L8.621,20.6a7.043,7.043,0,0,0,1.69-4.131l.188-2.535A3.623,3.623,0,0,1,13.832,10.6l2.535-.188A7.5,7.5,0,0,0,20.5,8.721l1.924-1.643a3.751,3.751,0,0,1,2.347-.892,3.417,3.417,0,0,1,2.347.892L29.04,8.721a7.043,7.043,0,0,0,4.131,1.69l2.535.188a3.623,3.623,0,0,1,3.333,3.333l.188,2.535a7.5,7.5,0,0,0,1.69,4.131l1.643,1.924A3.438,3.438,0,0,1,42.746,27.262Z" transform="translate(-2.625 -2.725)" fill="#c6ced2" stroke="#fff" stroke-width="0.7"/>
      <path id="Path_149" data-name="Path 149" d="M44.03,35.71H42.387a2.109,2.109,0,0,1-2.112-2.347,2.2,2.2,0,0,1,2.253-1.924h1.878a1.508,1.508,0,0,1,1.455,1.173.451.451,0,0,0,.422.329h2.159a.409.409,0,0,0,.422-.469,4.472,4.472,0,0,0-4.178-3.99V26.322a.421.421,0,0,0-.422-.422H42.105a.421.421,0,0,0-.422.422v2.159a5.124,5.124,0,0,0-4.412,5.586,5.3,5.3,0,0,0,5.351,4.6H44.03a2.109,2.109,0,0,1,2.112,2.347,2.2,2.2,0,0,1-2.253,1.924H42.011a1.508,1.508,0,0,1-1.455-1.173.451.451,0,0,0-.422-.329H37.974a.409.409,0,0,0-.422.469A4.472,4.472,0,0,0,41.73,45.9v2.159a.421.421,0,0,0,.422.422h2.159a.421.421,0,0,0,.422-.422V45.849a5.091,5.091,0,0,0-.7-10.139Z" transform="translate(-20.994 -15.022)" fill="#c6ced2"/>
    </g>
  </g>
</svg>
