<svg xmlns="http://www.w3.org/2000/svg" xmlns:xlink="http://www.w3.org/1999/xlink" width="48" height="48" viewBox="0 0 48 48"><defs><clipPath id="a"><rect width="48" height="48" transform="translate(681 656)" fill="#c6ced2" stroke="#707070" stroke-width="1"/></clipPath></defs><g transform="translate(-681 -656)" clip-path="url(#a)"><g transform="translate(683 661)"><path d="M12.307,16.951a1.091,1.091,0,1,0,2.117-.529L12.771,9.812a1.091,1.091,0,0,0-2.117.529Z" transform="translate(8.189 2.982)" fill="#c6ced2"/><path d="M17.448,17.745a1.091,1.091,0,0,0,1.323-.794l1.653-6.61a1.091,1.091,0,1,0-2.117-.529l-1.653,6.611A1.091,1.091,0,0,0,17.448,17.745Z" transform="translate(15.28 2.982)" fill="#c6ced2"/><path d="M14,16.636a1.091,1.091,0,1,0,2.182,0V10.091a1.091,1.091,0,1,0-2.182,0Z" transform="translate(12.182 3)" fill="#c6ced2"/><path d="M9.884,3.5A2.182,2.182,0,0,1,12,5.131l1,3.823H44.2a2.182,2.182,0,0,1,2.1,2.766L41.455,29.175a2.182,2.182,0,0,1-2.1,1.6H18.116A2.182,2.182,0,0,1,16,29.142L9.884,5.682H3.091a1.091,1.091,0,0,1,0-2.182Zm8.231,25.091L13.562,11.136H44.2L39.353,28.591Z" transform="translate(-2 -3.5)" fill="#c6ced2" fill-rule="evenodd"/><path d="M18.083,21.013a4.5,4.5,0,1,1-4.5-4.5A4.5,4.5,0,0,1,18.083,21.013Zm-2.118,0A2.383,2.383,0,1,1,13.583,18.7,2.351,2.351,0,0,1,15.966,21.013Z" transform="translate(6.371 12.881)" fill="#c6ced2" fill-rule="evenodd"/><path d="M24.458,21.013a4.5,4.5,0,1,1-4.5-4.5A4.5,4.5,0,0,1,24.458,21.013Zm-2.118,0A2.383,2.383,0,1,1,19.958,18.7,2.351,2.351,0,0,1,22.341,21.013Z" transform="translate(13.905 12.881)" fill="#c6ced2" fill-rule="evenodd"/></g></g></svg>