<svg xmlns="http://www.w3.org/2000/svg" xmlns:xlink="http://www.w3.org/1999/xlink" width="48" height="48" viewBox="0 0 48 48">
  <defs>
    <clipPath id="clip-path">
      <rect id="Rectangle_9" data-name="Rectangle 9" width="48" height="48" transform="translate(114 295)" fill="#c6ced2" stroke="#707070" stroke-width="1"/>
    </clipPath>
  </defs>
  <g id="cechout-icon" transform="translate(-114 -295)" clip-path="url(#clip-path)">
    <g id="Group_47" data-name="Group 47" transform="translate(115 301)">
      <path id="Path_37" data-name="Path 37" d="M53.419,36.46a1.125,1.125,0,0,0-1.581-.17L45.364,41.5l-2.775-2.471a1.125,1.125,0,1,0-1.5,1.681l3.488,3.1a1.125,1.125,0,0,0,1.453.035l7.216-5.809a1.125,1.125,0,0,0,.168-1.582Z" transform="translate(-10.722 -15.433)" fill="#c6ced2" stroke="#fff" stroke-width="0.3"/>
      <path id="Path_38" data-name="Path 38" d="M45.868,27.584A10.444,10.444,0,1,0,56.312,38.028,10.445,10.445,0,0,0,45.868,27.584Zm0,18.639a8.194,8.194,0,1,1,8.195-8.194,8.194,8.194,0,0,1-8.195,8.194Z" transform="translate(-9.399 -13.318)" fill="#c6ced2" stroke="#fff" stroke-width="0.3"/>
      <path id="Path_39" data-name="Path 39" d="M16.381,25.413a4.749,4.749,0,1,0,0,6.934,4.747,4.747,0,1,0,0-6.934Zm-3.232,5.97a2.5,2.5,0,1,1,2.5-2.5,2.5,2.5,0,0,1-2.5,2.5Zm8.962-2.5a2.493,2.493,0,0,1-4.469,1.524,4.677,4.677,0,0,0,0-3.044,2.459,2.459,0,0,1,1.973-.975,2.5,2.5,0,0,1,2.5,2.492Z" transform="translate(-2.64 -12.455)" fill="#c6ced2" stroke="#fff" stroke-width="0.3"/>
      <path id="Path_40" data-name="Path 40" d="M44.846,16.777a1.125,1.125,0,0,0-1.125-1.125H34.5a1.125,1.125,0,0,0,0,2.25h9.225A1.125,1.125,0,0,0,44.846,16.777Z" transform="translate(-8.886 -10.335)" fill="#c6ced2" stroke="#fff" stroke-width="0.3"/>
      <path id="Path_41" data-name="Path 41" d="M24.9,32.8H3.274a.3.3,0,0,1-.3-.3V11.113a.3.3,0,0,1,.3-.3H39.9a.3.3,0,0,1,.3.3V21.341a12.225,12.225,0,0,1,2.25.807V11.113a2.55,2.55,0,0,0-2.55-2.55H3.274a2.55,2.55,0,0,0-2.55,2.55V32.5a2.55,2.55,0,0,0,2.55,2.55H25.016a12.344,12.344,0,0,1-.143-1.781C24.873,33.116,24.89,32.961,24.9,32.8Z" transform="translate(-0.724 -8.563)" fill="#c6ced2" stroke="#fff" stroke-width="0.3"/>
    </g>
  </g>
</svg>
