<svg xmlns="http://www.w3.org/2000/svg" xmlns:xlink="http://www.w3.org/1999/xlink" width="48" height="48" viewBox="0 0 48 48"><defs><clipPath id="a"><rect width="48" height="48" transform="translate(819 434)" fill="#c6ced2" stroke="#707070" stroke-width="1"/></clipPath></defs><g transform="translate(-819 -434)" clip-path="url(#a)"><g transform="translate(-5.908 -8)"><g transform="translate(821.908 438.999)" fill="#c6ced2"><path d="M 15.24070835113525 49.85067367553711 L 14.66008853912354 49.85067367553711 L 14.07955455780029 49.85067367553711 C 12.66239929199219 49.76530456542969 11.26094627380371 49.34982681274414 10.02625846862793 48.64901351928711 C 8.790298461914062 47.94747161865234 7.714108467102051 46.95580291748047 6.914038181304932 45.78121185302734 C 6.064428329467773 44.56265258789062 5.495188236236572 43.14427185058594 5.266938209533691 41.67806243896484 C 5.038688182830811 40.21184158325195 5.149838447570801 38.68755340576172 5.58836841583252 37.26996231079102 L 13.3234281539917 12.19479274749756 C 13.50646781921387 11.60655307769775 14.04367828369141 11.21110343933105 14.66008853912354 11.21110343933105 C 15.27650833129883 11.21110343933105 15.81371784210205 11.60655307769775 15.99686813354492 12.19513320922852 L 16.56673812866211 14.04474353790283 L 16.60800743103027 14.17869281768799 L 16.74444770812988 14.14658355712891 L 22.03446769714355 12.90158271789551 L 22.1448974609375 12.8755931854248 L 22.14995765686035 12.76226329803467 C 22.20232772827148 11.58947277069092 22.62587738037109 10.49174308776855 23.37482833862305 9.587733268737793 C 24.12377738952637 8.683723449707031 25.12359809875488 8.063403129577637 26.26617813110352 7.793843269348145 C 26.66949844360352 7.69869327545166 27.08313751220703 7.650443077087402 27.49560737609863 7.650443077087402 C 29.43461799621582 7.650443077087402 31.22537803649902 8.703453063964844 32.1690673828125 10.39852333068848 L 32.2241096496582 10.49739265441895 L 32.33428955078125 10.47162342071533 L 37.99930953979492 9.146622657775879 L 38.08319854736328 9.127002716064453 L 38.10851669311523 9.044663429260254 L 39.00351715087891 6.134653091430664 C 39.18652725219727 5.546543121337891 39.72373962402344 5.151093006134033 40.34015655517578 5.151093006134033 C 40.95656967163086 5.151093006134033 41.49376678466797 5.546543121337891 41.67691802978516 6.135123252868652 L 49.41183853149414 31.204833984375 C 49.85039901733398 32.62253189086914 49.9615478515625 34.14683151245117 49.73329925537109 35.61305236816406 C 49.50504684448242 37.07926177978516 48.93581008911133 38.49764251708984 48.08712768554688 39.71485137939453 C 47.28474807739258 40.88779449462891 46.20780944824219 41.87662124633789 44.97196960449219 42.57555389404297 C 43.73741149902344 43.27374649047852 42.33661651611328 43.68696594238281 40.92076873779297 43.77065277099609 L 40.34014892578125 43.77065277099609 L 39.75952911376953 43.77065277099609 C 38.34366989135742 43.68696594238281 36.94288635253906 43.27374649047852 35.70832824707031 42.57555389404297 C 34.47248840332031 41.87662124633789 33.39554977416992 40.88779449462891 32.59392929077148 39.7159538269043 C 31.74303817749023 38.49811172485352 31.17305755615234 37.07989120483398 30.94476890563965 35.6133918762207 C 30.71647834777832 34.14689254760742 30.82837867736816 32.62252426147461 31.26838874816895 31.2050838470459 L 37.09844970703125 12.35990333557129 L 37.17588806152344 12.10957336425781 L 36.92080688476562 12.16955280303955 L 32.96579742431641 13.09955310821533 L 32.8553466796875 13.12553310394287 L 32.85028839111328 13.23888301849365 C 32.79791641235352 14.41166305541992 32.37435913085938 15.50940322875977 31.62540817260742 16.41341400146484 C 30.8764591217041 17.31742286682129 29.87663841247559 17.9377326965332 28.73405838012695 18.20730400085449 C 28.33074760437012 18.30245399475098 27.9171085357666 18.35069274902344 27.50464820861816 18.35069274902344 C 25.56563758850098 18.35069274902344 23.77486801147461 17.29769325256348 22.83116912841797 15.60262298583984 L 22.77599906921387 15.5035228729248 L 22.66561889648438 15.52960300445557 L 17.56560897827148 16.73460388183594 L 17.40950775146484 16.77148246765137 L 17.45674896240234 16.92476272583008 L 23.73175811767578 37.28481292724609 C 24.1718578338623 38.70255279541016 24.28375816345215 40.22692489624023 24.05546760559082 41.69342422485352 C 23.82717895507812 43.1599235534668 23.25719833374023 44.57814407348633 22.40714836120605 45.79476165771484 C 21.60468864440918 46.96782302856445 20.52774810791016 47.9566535949707 19.29190826416016 48.65557479858398 C 18.05735015869141 49.35376739501953 16.65656661987305 49.76698303222656 15.24070835113525 49.85067367553711 Z M 7.958828449249268 41.35065460205078 L 7.992728233337402 41.52871322631836 C 8.179657936096191 42.51052474975586 8.561078071594238 43.42626190185547 9.126378059387207 44.25049209594727 C 9.698088645935059 45.0867919921875 10.46624851226807 45.79309463500977 11.34767818450928 46.29286193847656 C 12.22910785675049 46.79264450073242 13.2296085357666 47.08916473388672 14.24102783203125 47.15039443969727 C 14.38138866424561 47.15805435180664 14.52291870117188 47.16190338134766 14.66258811950684 47.16190338134766 C 14.80226802825928 47.16190338134766 14.94379806518555 47.15805435180664 15.08325862884521 47.15044403076172 C 16.09513854980469 47.08684158325195 17.09430885314941 46.78815460205078 17.97400856018066 46.28660202026367 C 18.85370826721191 45.78505325317383 19.61968803405762 45.07735443115234 20.18913841247559 44.2400016784668 C 20.75655746459961 43.4211540222168 21.1397876739502 42.50863265991211 21.32742881774902 41.52887344360352 L 21.36155891418457 41.35065460205078 L 21.18010902404785 41.35065460205078 L 8.140078544616699 41.35065460205078 L 7.958828449249268 41.35065460205078 Z M 40.60525512695312 41.0673828125 L 40.60526657104492 41.0850944519043 L 40.76430892944336 41.07537460327148 C 42.81251907348633 40.95016479492188 44.72098922729492 39.86015319824219 45.86948013305664 38.15959167480469 C 46.43552780151367 37.34059143066406 46.81870651245117 36.42818450927734 47.0074577331543 35.44902420043945 L 47.04184722900391 35.27063369750977 L 46.86016845703125 35.27063369750977 L 33.81012725830078 35.27063369750977 L 33.62884902954102 35.27063369750977 L 33.66277694702148 35.44871139526367 C 33.84957885742188 36.42892456054688 34.23283767700195 37.34153366088867 34.80192947387695 38.16119384765625 C 35.95501708984375 39.85751342773438 37.8673095703125 40.9417839050293 39.91646957397461 41.06039428710938 C 40.05731964111328 41.06803131103516 40.19970703125 41.07189178466797 40.34021759033203 41.07189178466797 C 40.42815780639648 41.07189178466797 40.51682662963867 41.07038116455078 40.60525512695312 41.0673828125 Z M 14.66014862060547 17.02639389038086 L 14.51674842834473 17.49138259887695 L 8.171738624572754 38.06644439697266 C 8.139918327331543 38.16983413696289 8.117328643798828 38.27197265625 8.095478057861328 38.37076187133789 C 8.088388442993164 38.40281295776367 8.081308364868164 38.43485260009766 8.073907852172852 38.46690368652344 L 8.031508445739746 38.650634765625 L 8.220067977905273 38.650634765625 L 21.10509872436523 38.650634765625 L 21.30081748962402 38.650634765625 L 21.24993896484375 38.46164321899414 C 21.23859786987305 38.41950225830078 21.22834777832031 38.37735366821289 21.21807861328125 38.33521270751953 C 21.19668579101562 38.24736022949219 21.1745662689209 38.15654754638672 21.14269828796387 38.06400680541992 L 14.80343818664551 17.49141311645508 L 14.66014862060547 17.02639389038086 Z M 40.32481002807617 10.99223327636719 L 40.18179702758789 11.45639324188232 L 33.85178756713867 32.0014533996582 C 33.82634735107422 32.08413314819336 33.80686950683594 32.16582489013672 33.78802871704102 32.24483489990234 C 33.77596664428711 32.2954216003418 33.76391983032227 32.34603500366211 33.75029754638672 32.39662170410156 L 33.69940948486328 32.58562469482422 L 33.89513778686523 32.58562469482422 L 46.78016662597656 32.58562469482422 L 46.96872711181641 32.58562469482422 L 46.92632675170898 32.40189361572266 C 46.91893005371094 32.36984252929688 46.91183853149414 32.33778381347656 46.90475845336914 32.30573272705078 C 46.88290786743164 32.20695495605469 46.86031723022461 32.10481262207031 46.82853698730469 32.00151443481445 L 40.46843719482422 11.45620346069336 L 40.32481002807617 10.99223327636719 Z M 27.50011825561523 10.35056304931641 C 26.03890800476074 10.35056304931641 24.85011863708496 11.5393533706665 24.85011863708496 13.00057315826416 C 24.85011863708496 14.46178340911865 26.03890800476074 15.65057277679443 27.50011825561523 15.65057277679443 C 28.96133804321289 15.65057277679443 30.15012741088867 14.46178340911865 30.15012741088867 13.00057315826416 C 30.15012741088867 11.5393533706665 28.96133804321289 10.35056304931641 27.50011825561523 10.35056304931641 Z" stroke="none"/><path d="M 15.23615455627441 49.7006721496582 C 16.6278190612793 49.61774826049805 18.00458145141602 49.21128463745117 19.21806907653809 48.52500152587891 C 20.43407821655273 47.8372917175293 21.49374771118164 46.86433410644531 22.28418731689453 45.70885467529297 C 23.12121772766113 44.51087188720703 23.68245887756348 43.11438369750977 23.90725898742676 41.67035293579102 C 24.13204765319824 40.22631454467773 24.02185821533203 38.72530364990234 23.58841896057129 37.32899475097656 L 17.21892738342285 16.66238403320312 L 22.85188865661621 15.33146286010742 L 22.96222877502441 15.52965354919434 C 23.87946891784668 17.17721366882324 25.62001800537109 18.20069313049316 27.50464820861816 18.20069313049316 C 27.905517578125 18.20069313049316 28.30756759643555 18.15379333496094 28.69960784912109 18.06131362915039 C 29.81015777587891 17.79930305480957 30.78194808959961 17.19637298583984 31.5098991394043 16.31771278381348 C 32.23784637451172 15.43905353546143 32.64953994750977 14.37209320068359 32.700439453125 13.23219299316406 L 32.7105598449707 13.00548267364502 L 37.39663696289062 11.90357303619385 L 31.4116382598877 31.24955368041992 C 30.97837829589844 32.64527130126953 30.86818885803223 34.14629364013672 31.09298896789551 35.59032440185547 C 31.31777763366699 37.03435134887695 31.8790283203125 38.43084335327148 32.71773910522461 39.63126373291016 C 33.50648880004883 40.7843017578125 34.56615829467773 41.75727462768555 35.78216934204102 42.44498443603516 C 36.99565505981445 43.13126754760742 38.37241744995117 43.53772735595703 39.76408386230469 43.62065124511719 L 40.91621398925781 43.62065124511719 C 42.30787658691406 43.53772735595703 43.68463134765625 43.13126754760742 44.89812850952148 42.44498443603516 C 46.11413955688477 41.75727462768555 47.17380905151367 40.7843017578125 47.96407699584961 39.62906265258789 C 48.79978942871094 38.43046188354492 49.36032867431641 37.03377151489258 49.58507919311523 35.58997344970703 C 49.80983734130859 34.14618301391602 49.70038986206055 32.64518356323242 49.26849746704102 31.24906349182129 L 41.53369903564453 6.179693222045898 C 41.37016677856445 5.654172897338867 40.89051818847656 5.301093101501465 40.34015655517578 5.301093101501465 C 39.78977966308594 5.301093101501465 39.31012725830078 5.654172897338867 39.14688873291016 6.1787428855896 L 38.20123672485352 9.253442764282227 L 32.14808654785156 10.66922283172607 L 32.03800964355469 10.47149276733398 C 31.12076759338379 8.823932647705078 29.38021850585938 7.800443172454834 27.49560737609863 7.800443172454834 C 27.09474754333496 7.800443172454834 26.69269752502441 7.847342967987061 26.30061912536621 7.939833164215088 C 25.1900691986084 8.20184326171875 24.21828842163086 8.804762840270996 23.49033737182617 9.683423042297363 C 22.76238822937012 10.56209278106689 22.3507080078125 11.62905311584473 22.29980850219727 12.76895332336426 L 22.28968811035156 12.99561309814453 L 16.50592803955078 14.35681343078613 L 15.85364818572998 12.23970317840576 C 15.69011783599854 11.71418285369873 15.21045780181885 11.36110305786133 14.66008853912354 11.36110305786133 C 14.10971832275391 11.36110305786133 13.63006782531738 11.71419334411621 13.46675872802734 12.23900318145752 L 5.731668472290039 37.31429290771484 C 5.299848079681396 38.71020126342773 5.190398216247559 40.2111930847168 5.415158271789551 41.65498352050781 C 5.639908313751221 43.09878158569336 6.200448036193848 44.4954719543457 7.038018226623535 45.69676208496094 C 7.825248241424561 46.85251235961914 8.88416862487793 47.82828140258789 10.10030841827393 48.51856231689453 C 11.31391429901123 49.20742034912109 12.69125556945801 49.61609649658203 14.08418464660645 49.7006721496582 L 15.23615455627441 49.7006721496582 M 7.777568340301514 41.20065307617188 L 21.54301834106445 41.20065307617188 L 21.4747486114502 41.55708312988281 C 21.28314781188965 42.55751419067383 20.89183807373047 43.48929214477539 20.31316757202148 44.3243522644043 C 19.73093795776367 45.18050384521484 18.94775772094727 45.90410232543945 18.04829788208008 46.41691207885742 C 17.14885902404785 46.92972183227539 16.12723731994629 47.23511123657227 15.09143829345703 47.30021286010742 C 14.80734920501709 47.31573104858398 14.51964855194092 47.31583023071289 14.23195838928223 47.30011367797852 C 13.19785785675049 47.23751449584961 12.17489814758301 46.93433380126953 11.27368831634521 46.4233512878418 C 10.37247848510742 45.9123649597168 9.587088584899902 45.19021224975586 9.002677917480469 44.33533477783203 C 8.425578117370605 43.49391174316406 8.036208152770996 42.55906295776367 7.845368385314941 41.5567626953125 L 7.777568340301514 41.20065307617188 M 40.45535278320312 41.22105026245117 C 40.27292633056641 41.22370529174805 40.09040451049805 41.22005081176758 39.90779876708984 41.21014404296875 C 37.81241989135742 41.08885192871094 35.85698699951172 39.98012161254883 34.67870712280273 38.24673461914062 C 34.09756851196289 37.40971374511719 33.7061882019043 36.47776412963867 33.51542663574219 35.47679138183594 L 33.44755935668945 35.12063217163086 L 47.22351837158203 35.12063217163086 L 47.15474700927734 35.47741317749023 C 46.96203994750977 36.47711181640625 46.57081985473633 37.40867233276367 45.99377822875977 38.2435417175293 C 44.81938934326172 39.98246383666992 42.86786651611328 41.09705352783203 40.77346801757812 41.22509384155273 L 40.45536804199219 41.24454498291016 L 40.45535278320312 41.22105026245117 M 14.66019821166992 16.51719284057617 L 21.28534507751465 38.01755523681641 C 21.31902885437012 38.11578369140625 21.34179496765137 38.20925903320312 21.36381912231445 38.29971313476562 C 21.37380790710449 38.34069442749023 21.38375854492188 38.38167190551758 21.39478874206543 38.42265319824219 L 21.49652862548828 38.80063247680664 L 7.842948436737061 38.80063247680664 L 7.927748203277588 38.43317413330078 C 7.93504810333252 38.40157318115234 7.942028045654297 38.36997222900391 7.949018478393555 38.33837127685547 C 7.971508026123047 38.23667144775391 7.994768142700195 38.13150405883789 8.028398513793945 38.02223205566406 L 14.66019821166992 16.51719284057617 M 40.32446670532227 10.48389339447021 L 46.97189712524414 31.95739364624023 C 47.00546646118164 32.06649398803711 47.02872848510742 32.17165374755859 47.05121994018555 32.27334213256836 C 47.05820846557617 32.30495452880859 47.06518936157227 32.33655166625977 47.07248687744141 32.3681640625 L 47.15728759765625 32.73562240600586 L 33.50368881225586 32.73562240600586 L 33.6054573059082 32.35763168334961 C 33.61869812011719 32.30843353271484 33.63038635253906 32.25923156738281 33.64211654663086 32.21003341674805 C 33.66150665283203 32.12872314453125 33.68155670166016 32.04463195800781 33.70843887329102 31.9572925567627 L 40.32446670532227 10.48389339447021 M 27.50011825561523 10.20056343078613 C 29.04404830932617 10.20056343078613 30.30012893676758 11.45664310455322 30.30012893676758 13.00057315826416 C 30.30012893676758 14.5445032119751 29.04404830932617 15.80057334899902 27.50011825561523 15.80057334899902 C 25.9561882019043 15.80057334899902 24.70011901855469 14.5445032119751 24.70011901855469 13.00057315826416 C 24.70011901855469 11.45664310455322 25.9561882019043 10.20056343078613 27.50011825561523 10.20056343078613 M 15.24508857727051 50.00067138671875 C 14.85174751281738 50.00067138671875 14.46842765808105 50.00067138671875 14.07508850097656 50.00067138671875 C 11.13734817504883 49.82514190673828 8.44683837890625 48.29799270629883 6.79006814956665 45.86565399169922 C 5.033918380737305 43.34693145751953 4.537638187408447 40.15899276733398 5.445068359375 37.22563171386719 L 13.18008804321289 12.15057277679443 C 13.38172817230225 11.50258350372314 13.98144817352295 11.06110286712646 14.66008853912354 11.06110286712646 C 15.3387279510498 11.06110286712646 15.93845844268799 11.50258350372314 16.14009857177734 12.15056324005127 L 16.7100887298584 14.00057315826416 L 22.00010871887207 12.75557327270508 C 22.10982894897461 10.29830265045166 23.83774757385254 8.212642669677734 26.23173904418945 7.647852897644043 C 28.6257381439209 7.083054065704346 31.10366821289062 8.176453590393066 32.30012893676758 10.32556343078613 L 37.96514892578125 9.00056266784668 L 38.86014938354492 6.090553283691406 C 39.06178665161133 5.442563056945801 39.66151809692383 5.001092910766602 40.34015655517578 5.001092910766602 C 41.0187873840332 5.001092910766602 41.61850738525391 5.442563056945801 41.82014846801758 6.090553283691406 L 49.55516815185547 31.16061401367188 C 50.46259689331055 34.0939826965332 49.9663200378418 37.28192138671875 48.21016693115234 39.80064392089844 C 46.55018997192383 42.2272834777832 43.86018753051758 43.74859237670898 40.92514801025391 43.920654296875 C 40.53849029541016 43.920654296875 40.14180755615234 43.920654296875 39.75514984130859 43.920654296875 C 36.82009887695312 43.74859237670898 34.13010787963867 42.2272834777832 32.47012710571289 39.80064392089844 C 30.71110916137695 37.28307342529297 30.21461868286133 34.0937614440918 31.1251277923584 31.16061401367188 L 36.95514678955078 12.31557273864746 L 33.00013732910156 13.24557304382324 C 32.89040756225586 15.70283317565918 31.16248893737793 17.78849220275879 28.76849746704102 18.35329246520996 C 26.37450981140137 18.9180908203125 23.89657974243164 17.82468223571777 22.70010757446289 15.67558288574219 L 17.60009765625 16.88058280944824 L 23.87510871887207 37.24063491821289 C 24.78561782836914 40.17378234863281 24.28913879394531 43.36310195922852 22.53010749816895 45.88067245483398 C 20.8701286315918 48.30730438232422 18.18013763427734 49.82861328125 15.24508857727051 50.00067138671875 Z M 8.140078544616699 41.50065231323242 C 8.321998596191406 42.45612335205078 8.699948310852051 43.36354446411133 9.250078201293945 44.16565322875977 C 10.38938808441162 45.83223342895508 12.23498821258545 46.87868499755859 14.25008869171143 47.00066375732422 C 14.52488803863525 47.01565551757812 14.8002986907959 47.01565551757812 15.07508850097656 47.00066375732422 C 17.08860778808594 46.87409210205078 18.93056869506836 45.82392120361328 20.06509780883789 44.15565490722656 C 20.61778831481934 43.35805130004883 20.99757766723633 42.45370483398438 21.18010902404785 41.50065231323242 L 8.140078544616699 41.50065231323242 Z M 40.75514984130859 40.91065216064453 L 40.75515747070312 40.92565155029297 C 42.77091979980469 40.80242156982422 44.61488723754883 39.74924468994141 45.74516677856445 38.07564163208008 C 46.29681777954102 37.27747344970703 46.67651748657227 36.37334442138672 46.86016845703125 35.42063140869141 L 33.81012725830078 35.42063140869141 C 33.99179840087891 36.37394332885742 34.37166976928711 37.27847290039062 34.92513656616211 38.07564163208008 C 36.06074905395508 39.74623489379883 37.90850830078125 40.79391479492188 39.92513656616211 40.91064453125 C 40.20161056518555 40.92564010620117 40.47868347167969 40.9256477355957 40.75514984130859 40.91065216064453 Z M 21.10509872436523 38.50063323974609 C 21.07010841369629 38.37064361572266 21.04510879516602 38.24064254760742 21.00010871887207 38.11064147949219 L 14.66008853912354 17.53558349609375 L 8.315077781677246 38.11064147949219 C 8.275068283081055 38.24064254760742 8.250068664550781 38.37064361572266 8.220067977905273 38.50063323974609 L 21.10509872436523 38.50063323974609 Z M 46.78016662597656 32.43562316894531 C 46.75016784667969 32.30562210083008 46.72517013549805 32.17562484741211 46.6851692199707 32.04562377929688 L 40.32514953613281 11.50056266784668 L 33.99514007568359 32.04562377929688 C 33.95513916015625 32.17562484741211 33.93013763427734 32.30562210083008 33.89513778686523 32.43562316894531 L 46.78016662597656 32.43562316894531 Z M 27.50011825561523 10.50056266784668 C 26.11940765380859 10.50056266784668 25.00011825561523 11.61985301971436 25.00011825561523 13.00057315826416 C 25.00011825561523 14.38128280639648 26.11940765380859 15.50057315826416 27.50011825561523 15.50057315826416 C 28.88083839416504 15.50057315826416 30.0001277923584 14.38128280639648 30.0001277923584 13.00057315826416 C 30.0001277923584 11.61985301971436 28.88083839416504 10.50056266784668 27.50011825561523 10.50056266784668 Z" stroke="none" fill="#fff"/></g></g></g></svg>