<svg xmlns="http://www.w3.org/2000/svg" xmlns:xlink="http://www.w3.org/1999/xlink" width="46" height="46" viewBox="0 0 46 46">
  <defs>
    <clipPath id="clip-path">
      <rect id="Rectangle_30" data-name="Rectangle 30" width="46" height="46" transform="translate(1 1)" fill="#c6ced2"/>
    </clipPath>
  </defs>
  <g id="cross-sell-icon" transform="translate(-1 -1)" clip-path="url(#clip-path)">
    <path id="Path_145" data-name="Path 145" d="M40.333,2H6.6A4.518,4.518,0,0,0,2,6.6V40.333a4.518,4.518,0,0,0,4.6,4.6H40.333a4.518,4.518,0,0,0,4.6-4.6V6.6A4.518,4.518,0,0,0,40.333,2Zm1.533,38.333a1.449,1.449,0,0,1-1.533,1.533H6.6a1.449,1.449,0,0,1-1.533-1.533V6.6A1.449,1.449,0,0,1,6.6,5.067H40.333A1.449,1.449,0,0,1,41.867,6.6Zm-9.2-23V15.8h-.153a1.4,1.4,0,0,0-1.227.613L25.46,23.467l5.98,7.053a1.893,1.893,0,0,0,1.227.613h0V29.6A1.449,1.449,0,0,1,34.2,28.067a1.392,1.392,0,0,1,1.073.46l3.067,3.067c.153.153.307.307.307.46v.767a.563.563,0,0,1-.153.46h0c0,.153-.153.307-.307.46h0L35.12,36.807a1.49,1.49,0,0,1-2.147-.153,2.179,2.179,0,0,1-.307-.92V34.2h-.153a4.584,4.584,0,0,1-3.527-1.687l-5.52-6.593-5.52,6.747A4.991,4.991,0,0,1,14.42,34.2H9.667a1.533,1.533,0,1,1,0-3.067H14.42a1.4,1.4,0,0,0,1.227-.613l5.98-7.053-5.98-7.053A1.893,1.893,0,0,0,14.42,15.8H9.667a1.449,1.449,0,0,1-1.533-1.533,1.449,1.449,0,0,1,1.533-1.533H14.42a4.584,4.584,0,0,1,3.527,1.687l5.52,6.747,5.52-6.747a4.584,4.584,0,0,1,3.527-1.687h.153V11.2A1.449,1.449,0,0,1,34.2,9.667a1.392,1.392,0,0,1,1.073.46l3.067,3.067h0c.153.153.307.307.307.46h0a.922.922,0,0,1,.153.613v.767c0,.153-.153.307-.307.46L35.427,18.56a1.48,1.48,0,0,1-2.147.307A1.458,1.458,0,0,1,32.667,17.333Z" transform="translate(0.533 0.533)" fill="#c6ced2" stroke="#fff" stroke-width="0.7"/>
  </g>
</svg>
