<svg xmlns="http://www.w3.org/2000/svg" xmlns:xlink="http://www.w3.org/1999/xlink" width="40" height="39.31" viewBox="0 0 40 39.31">
  <defs>
    <clipPath id="clip-path">
      <rect id="Rectangle_20" data-name="Rectangle 20" width="40" height="39.31" transform="translate(12 13)" fill="#c6ced2"/>
    </clipPath>
  </defs>
  <g id="download-icon" transform="translate(-12 -13)" clip-path="url(#clip-path)">
    <g id="Group_114" data-name="Group 114" transform="translate(12.69 13.69)">
      <g id="Group_73" data-name="Group 73">
        <path id="Path_107" data-name="Path 107" d="M48.862,51.931h-33.1A2.761,2.761,0,0,1,13,49.172V16.759A2.761,2.761,0,0,1,15.759,14h33.1a2.761,2.761,0,0,1,2.759,2.759V49.172A2.761,2.761,0,0,1,48.862,51.931Zm-33.1-35.172V49.172h33.1V16.759Z" transform="translate(-13 -14)" fill="#c6ced2" stroke="#fff" stroke-width="0.4"/>
      </g>
      <g id="Group_74" data-name="Group 74" transform="translate(2.759 25.517)">
        <path id="Path_108" data-name="Path 108" d="M37.69,57.207H30.1a4.837,4.837,0,0,1-4.627-3.448H17V51H28.034v1.379A2.071,2.071,0,0,0,30.1,54.448H37.69a2.071,2.071,0,0,0,2.069-2.069V51H50.1v2.759H42.317A4.837,4.837,0,0,1,37.69,57.207Z" transform="translate(-17 -51)" fill="#c6ced2" stroke="#fff" stroke-width="0.4"/>
      </g>
      <g id="Group_77" data-name="Group 77" transform="translate(13.508 8.276)">
        <g id="Group_75" data-name="Group 75" transform="translate(4.423)">
          <rect id="Rectangle_17" data-name="Rectangle 17" width="2.759" height="12.414" fill="#c6ced2" stroke="#fff" stroke-width="0.4"/>
        </g>
        <g id="Group_76" data-name="Group 76" transform="translate(0 7.99)">
          <path id="Path_109" data-name="Path 109" d="M38.389,45.34l-5.8-5.8,1.95-1.95,3.852,3.852,3.852-3.852,1.95,1.95Z" transform="translate(-32.586 -37.586)" fill="#c6ced2" stroke="#fff" stroke-width="0.4"/>
        </g>
      </g>
    </g>
  </g>
</svg>
