<svg xmlns="http://www.w3.org/2000/svg" width="14" height="14" viewBox="0 0 14 14">
  <path id="Path_102" data-name="Path 102" d="M22.04,36.262l3.033.4h0a1.2,1.2,0,0,0,.154.01,1.221,1.221,0,0,0,.86-.355l8.147-8.147a1.213,1.213,0,0,0,0-1.714l-3.429-3.429a1.214,1.214,0,0,0-1.714,0L20.944,31.17a1.22,1.22,0,0,0-.345,1.014l.4,3.033A1.214,1.214,0,0,0,22.04,36.262Zm-.41-4.407,8.147-8.147a.243.243,0,0,1,.343,0l3.429,3.429a.243.243,0,0,1,0,.343l-1.372,1.372-3.6-3.6-.686.686,1.372,1.372L23.7,32.876a.485.485,0,1,0,.686.686l5.568-5.568,1.543,1.543-6.09,6.09a.241.241,0,0,1-.2.069l-3.033-.4a.243.243,0,0,1-.209-.209l-.4-3.033A.241.241,0,0,1,21.63,31.856Z" transform="translate(-20.589 -22.668)" fill="#9fa3a7"/>
</svg>
