<svg xmlns="http://www.w3.org/2000/svg" xmlns:xlink="http://www.w3.org/1999/xlink" width="30.667" height="46" viewBox="0 0 30.667 46">
  <defs>
    <clipPath id="clip-path">
      <rect id="Rectangle_32" data-name="Rectangle 32" width="30.667" height="46" transform="translate(6 1.05)" fill="#c6ced2"/>
    </clipPath>
  </defs>
  <g id="fetured-products-icon" transform="translate(-6 -1.05)" clip-path="url(#clip-path)">
    <g id="Group_124" data-name="Group 124" transform="translate(7.733 2.583)">
      <path id="Path_147" data-name="Path 147" d="M8.663,44.815H32.8a1.538,1.538,0,0,0,1.533-1.533V34.833A1.538,1.538,0,0,0,32.8,33.3H22.264v-8.74L27.155,26.6a1.521,1.521,0,0,0,1.487-.169,1.541,1.541,0,0,0,.629-1.365L28.7,18.119l4.539-5.29a1.51,1.51,0,0,0,.291-1.472,1.533,1.533,0,0,0-1.1-1.012l-6.777-1.61L22.034,2.786a1.522,1.522,0,0,0-2.607,0L15.809,8.735,9.016,10.361a1.533,1.533,0,0,0-1.1,1.012A1.51,1.51,0,0,0,8.2,12.845l4.539,5.29-.567,6.946a1.524,1.524,0,0,0,.629,1.365,1.483,1.483,0,0,0,.9.291,1.667,1.667,0,0,0,.6-.123L19.2,24.575v8.74H8.663A1.538,1.538,0,0,0,7.13,34.848V43.3A1.525,1.525,0,0,0,8.663,44.815Zm6.777-22,.414-5.075a1.485,1.485,0,0,0-.368-1.119l-3.312-3.864,4.953-1.165a1.516,1.516,0,0,0,.951-.69l2.653-4.355,2.637,4.339a1.5,1.5,0,0,0,.951.69l4.953,1.165L25.959,16.6a1.572,1.572,0,0,0-.368,1.119l.414,5.075-4.692-1.963h0a1.7,1.7,0,0,0-.383-.077,1.074,1.074,0,0,0-.215-.046c-.031,0-.061.015-.092.015a1.5,1.5,0,0,0-.506.107h0ZM10.2,36.381H31.265v5.382H10.2Z" transform="translate(-7.13 -2.05)" fill="#c6ced2" stroke="#fff" stroke-width="0.5"/>
    </g>
  </g>
</svg>
