<svg xmlns="http://www.w3.org/2000/svg" xmlns:xlink="http://www.w3.org/1999/xlink" width="46" height="46" viewBox="0 0 46 46">
  <defs>
    <clipPath id="clip-path">
      <rect id="Rectangle_23" data-name="Rectangle 23" width="46" height="46" transform="translate(-1 -1)" fill="#c6ced2"/>
    </clipPath>
  </defs>
  <g id="my-account-icon" transform="translate(1 1)" clip-path="url(#clip-path)">
    <g id="Group_79" data-name="Group 79" transform="translate(0.353 0.353)">
      <path id="Path_111" data-name="Path 111" d="M21.647,0A21.647,21.647,0,1,0,43.294,21.647,21.646,21.646,0,0,0,21.647,0Zm0,40.588A18.941,18.941,0,1,1,40.588,21.647,18.962,18.962,0,0,1,21.647,40.588Z" fill="#c6ced2" stroke="#fff" stroke-width="0.4"/>
      <path id="Path_112" data-name="Path 112" d="M17.506,17.2a5.771,5.771,0,1,0-5.772-5.77A5.776,5.776,0,0,0,17.506,17.2Zm0-8.835a3.064,3.064,0,1,1-3.066,3.064A3.069,3.069,0,0,1,17.506,8.366Z" transform="translate(4.141 1.997)" fill="#c6ced2" stroke="#fff" stroke-width="0.4"/>
      <path id="Path_113" data-name="Path 113" d="M24.446,14.537l-.655-.2L19.175,17.82l-4.616-3.48-.655.2a9.65,9.65,0,0,0-6.9,9.2l.018,1.335h24.3l.018-1.335A9.652,9.652,0,0,0,24.446,14.537ZM9.88,22.366a6.756,6.756,0,0,1,4.171-5.021l5.124,3.863L24.3,17.347a6.725,6.725,0,0,1,4.177,5.021H9.88Z" transform="translate(2.472 5.061)" fill="#c6ced2" stroke="#fff" stroke-width="0.4"/>
    </g>
  </g>
</svg>
