<svg xmlns="http://www.w3.org/2000/svg" xmlns:xlink="http://www.w3.org/1999/xlink" width="45.714" height="48" viewBox="0 0 45.714 48">
  <defs>
    <clipPath id="clip-path">
      <rect id="Rectangle_19" data-name="Rectangle 19" width="45.714" height="48" transform="translate(4 3.14)" fill="#c6ced2"/>
    </clipPath>
  </defs>
  <g id="order-icon" transform="translate(-4 -3.14)" clip-path="url(#clip-path)">
    <g id="Group_78" data-name="Group 78" transform="translate(6.743 5.426)">
      <path id="Path_110" data-name="Path 110" d="M12.638,13.523a1.143,1.143,0,0,1,1.143-1.143h16.21a1.143,1.143,0,1,1,0,2.286H13.781A1.143,1.143,0,0,1,12.638,13.523Zm1.143,7.627h16.21a1.143,1.143,0,1,0,0-2.286H13.781a1.143,1.143,0,0,0,0,2.286Zm0,6.482h16.21a1.143,1.143,0,1,0,0-2.286H13.781a1.143,1.143,0,0,0,0,2.286Zm12.494,4.21h-12.5a1.143,1.143,0,1,0,0,2.286h12.5a1.143,1.143,0,0,0,0-2.286Zm19.065,7.28A8.633,8.633,0,0,1,28.7,42.357H10.914A5.714,5.714,0,0,1,5.2,36.643V9.854A5.714,5.714,0,0,1,10.914,4.14H32.857a5.714,5.714,0,0,1,5.714,5.714V30.7a8.649,8.649,0,0,1,6.768,8.423Zm-17.186.949a8.245,8.245,0,0,1,8.133-9.547V9.854a3.392,3.392,0,0,0-3.429-3.429H10.914A3.392,3.392,0,0,0,7.486,9.854V36.643a3.392,3.392,0,0,0,3.429,3.429Zm14.9-.949A6.357,6.357,0,1,0,36.7,45.479,6.357,6.357,0,0,0,43.054,39.123ZM36.7,34.551a1.143,1.143,0,0,0-1.143,1.143v2.64l-1.371.535a1.143,1.143,0,1,0,.83,2.13l2.1-.821a1.143,1.143,0,0,0,.727-1.065V35.685A1.143,1.143,0,0,0,36.7,34.554Z" transform="translate(-5.2 -4.14)" fill="#c6ced2" stroke="#c6ced2" stroke-width="0.4"/>
    </g>
  </g>
</svg>
