<svg xmlns="http://www.w3.org/2000/svg" xmlns:xlink="http://www.w3.org/1999/xlink" width="48" height="48" viewBox="0 0 48 48">
  <defs>
    <clipPath id="clip-path">
      <rect id="Rectangle_13" data-name="Rectangle 13" width="48" height="48" transform="translate(453 438)" fill="#c6ced2" stroke="#707070" stroke-width="1"/>
    </clipPath>
  </defs>
  <g id="quickview-icon" transform="translate(-453 -438)" clip-path="url(#clip-path)">
    <g id="Area_selection_tool_zoom" data-name="Area, selection, tool, zoom" transform="translate(446.13 432.57)">
      <path id="Path_83" data-name="Path 83" d="M52.983,51.287l-6.059-8.17a9.694,9.694,0,0,0-2.434-15.472V8.543A3.124,3.124,0,0,0,41.378,5.43h-30.4A3.118,3.118,0,0,0,7.87,8.543v30.4a3.113,3.113,0,0,0,3.113,3.113H32.207c.038.054.07.108.108.156a9.726,9.726,0,0,0,12.473,2.542l6.037,8.143a1.346,1.346,0,0,0,2.154-1.616ZM32.616,29.971a9.656,9.656,0,0,0-1.82,9.376H10.983a.42.42,0,0,1-.42-.42V8.543a.42.42,0,0,1,.42-.42h30.4a.42.42,0,0,1,.42.42v18.2h-.1a8.125,8.125,0,0,0-.84-.108h-.135a8.618,8.618,0,0,0-.916,0h-.059a9.694,9.694,0,0,0-4.782,1.4h0c-.285.178-.571.372-.846.582a8.346,8.346,0,0,0-.7.6,2.212,2.212,0,0,0-.162.156,6.87,6.87,0,0,0-.506.539Zm11.7,11.848a7.044,7.044,0,0,1-9.866-1.287c-.14-.183-.269-.377-.393-.571h0c-.059-.1-.108-.194-.162-.291s-.129-.215-.183-.323l-.075-.172c-.07-.162-.145-.318-.2-.485v-.048a7.071,7.071,0,0,1,.856-6.462h0c.118-.167.248-.329.382-.49a.345.345,0,0,0,.054-.07c.124-.14.258-.275.4-.409l.092-.1a6.346,6.346,0,0,1,.539-.458,7.819,7.819,0,0,1,.679-.452l.188-.108a6.516,6.516,0,0,1,.673-.334l.215-.086c.167-.065.334-.118.5-.172l.307-.086a6.321,6.321,0,0,1,.635-.129l.339-.043.469-.032h.372a6.3,6.3,0,0,1,.711.043l.194.032q.345.048.695.129l.145.043a7.616,7.616,0,0,1,.727.237,7,7,0,0,1,1.729,12.117Z" fill="#c6ced2" stroke="#fff" stroke-width="0.6"/>
      <path id="Path_84" data-name="Path 84" d="M65.432,55.862H62.988V53.418a1.128,1.128,0,0,0-2.255,0v2.445H58.288a1.128,1.128,0,1,0,0,2.255h2.445v2.445a1.128,1.128,0,1,0,2.255,0V58.118h2.445a1.128,1.128,0,0,0,0-2.255Z" transform="translate(-21.86 -20.795)" fill="#c6ced2" stroke="#fff" stroke-width="0.6"/>
    </g>
  </g>
</svg>
