<svg xmlns="http://www.w3.org/2000/svg" xmlns:xlink="http://www.w3.org/1999/xlink" width="37.577" height="46" viewBox="0 0 37.577 46">
  <defs>
    <clipPath id="clip-path">
      <rect id="Rectangle_35" data-name="Rectangle 35" width="37.577" height="46" transform="translate(-234 361.5)" fill="#c6ced2" stroke="#707070" stroke-width="1"/>
    </clipPath>
  </defs>
  <g id="sale-products-icon" transform="translate(234 -361.5)" clip-path="url(#clip-path)">
    <path id="Path_152" data-name="Path 152" d="M-225.892,407.139h22.417c3.628,0,6.608-2.592,6.608-5.831v-.13l-2.592-28.9a1.124,1.124,0,0,0-1.1-1.037h-5.377a8.793,8.793,0,0,0-8.746-8.746,8.751,8.751,0,0,0-8.746,8.746h-5.377a1.124,1.124,0,0,0-1.1,1.037l-2.592,28.9v.13C-232.5,404.548-229.52,407.139-225.892,407.139Zm11.208-42.372a6.5,6.5,0,0,1,6.479,6.479h-12.958A6.5,6.5,0,0,1-214.683,364.768Zm-13.087,8.746h4.406V377.4a1.135,1.135,0,0,0,1.1,1.1,1.135,1.135,0,0,0,1.1-1.1v-3.887h13.023V377.4a1.135,1.135,0,0,0,1.1,1.1,1.135,1.135,0,0,0,1.1-1.1v-3.887h4.406l2.462,27.859c0,1.944-2.008,3.563-4.406,3.563h-22.417c-2.4,0-4.341-1.62-4.406-3.563Zm5.9,22.158,12.893-12.893a1.058,1.058,0,0,1,1.555,0,1.058,1.058,0,0,1,0,1.555l-12.893,12.893a1.2,1.2,0,0,1-.777.324,1.2,1.2,0,0,1-.777-.324A1.058,1.058,0,0,1-221.875,395.672Zm12.051-5.248a3.819,3.819,0,0,0-2.721,1.1,3.819,3.819,0,0,0-1.1,2.721,3.819,3.819,0,0,0,1.1,2.721,3.819,3.819,0,0,0,2.721,1.1,3.819,3.819,0,0,0,2.721-1.1,3.819,3.819,0,0,0,1.1-2.721,3.819,3.819,0,0,0-1.1-2.721A4.052,4.052,0,0,0-209.824,390.424Zm1.1,4.989a1.517,1.517,0,0,1-1.1.454,1.563,1.563,0,0,1-1.1-.454h0a1.517,1.517,0,0,1-.454-1.1,1.563,1.563,0,0,1,.454-1.1,1.517,1.517,0,0,1,1.1-.454,1.563,1.563,0,0,1,1.1.454,1.517,1.517,0,0,1,.454,1.1A1.517,1.517,0,0,1-208.723,395.413ZM-222.2,388.48a3.932,3.932,0,0,0,2.721,1.1,4.052,4.052,0,0,0,2.721-1.1,3.793,3.793,0,0,0,0-5.377,3.793,3.793,0,0,0-5.377,0,3.736,3.736,0,0,0-.065,5.377Zm1.555-3.823a1.566,1.566,0,0,1,2.268,0,1.566,1.566,0,0,1,0,2.268,1.566,1.566,0,0,1-2.268,0h0A1.565,1.565,0,0,1-220.644,384.658Z" transform="translate(-0.528 -0.352)" fill="#c6ced2" stroke="#c6ced2" stroke-width="0.3"/>
  </g>
</svg>
