<svg xmlns="http://www.w3.org/2000/svg" xmlns:xlink="http://www.w3.org/1999/xlink" width="48" height="48" viewBox="0 0 48 48"><defs><clipPath id="a"><rect width="48" height="48" transform="translate(474 95)" fill="#c6ced2" stroke="#707070" stroke-width="1"/></clipPath></defs><g transform="translate(-474 -95)" clip-path="url(#a)"><g transform="translate(475 101)"><g transform="translate(-17.623 -24.38)" fill="#c6ced2"><path d="M 55.76999664306641 59.62820053100586 L 25.84522819519043 59.62820053100586 C 24.03980827331543 59.62443161010742 22.57073783874512 58.15229415893555 22.57073783874512 56.34656143188477 L 22.57073783874512 45.05581283569336 C 22.57073783874512 44.34846115112305 23.14621925354004 43.77298355102539 23.85357856750488 43.77298355102539 C 24.56092834472656 43.77298355102539 25.13640785217285 44.34846115112305 25.13640785217285 45.05581283569336 L 25.13640785217285 56.36089324951172 C 25.13399887084961 56.54723358154297 25.2084789276123 56.73204040527344 25.34074783325195 56.86602401733398 C 25.47300910949707 57.0000114440918 25.65688896179199 57.07686233520508 25.84521865844727 57.07686233520508 L 35.06551742553711 57.07686233520508 L 35.21551895141602 57.07686233520508 L 35.21551895141602 56.92686080932617 L 35.21551895141602 47.87133407592773 C 35.21926879882812 46.18028259277344 36.59834671020508 44.80120086669922 38.28973007202148 44.79745101928711 L 42.65954971313477 44.79745101928711 C 44.3505973815918 44.80120086669922 45.72967910766602 46.18029403686523 45.73342895507812 47.87167358398438 L 45.73342895507812 56.91253280639648 L 45.73342895507812 57.06253051757812 L 45.88342666625977 57.06253051757812 L 55.75566864013672 57.06254196166992 C 55.9439697265625 57.06254196166992 56.12782669067383 56.98570251464844 56.26009750366211 56.85173034667969 C 56.39238739013672 56.71774291992188 56.46687698364258 56.53291320800781 56.46445846557617 56.34463119506836 L 56.46446990966797 41.14417266845703 L 56.46446990966797 41.00693130493164 L 56.32776641845703 40.9947624206543 C 54.52824020385742 40.83462142944336 52.87648010253906 40.00251388549805 51.6767692565918 38.6517219543457 L 51.56405639648438 38.52482223510742 L 51.45197677612305 38.65227127075195 C 50.11668014526367 40.17067337036133 48.19117736816406 41.04776382446289 46.169189453125 41.05865097045898 C 46.12910842895508 41.05929183959961 46.09074020385742 41.05960083007812 46.05231857299805 41.05960083007812 C 44.10007858276367 41.05960083007812 42.20847702026367 40.24847412109375 40.86252975463867 38.83419036865234 L 40.75566864013672 38.72190093994141 L 40.64694976806641 38.83240127563477 C 39.25416946411133 40.2479133605957 37.31642913818359 41.05975341796875 35.33058929443359 41.05975341796875 C 33.34474945068359 41.05975341796875 31.40701866149902 40.2479133605957 30.01422882080078 38.83240127563477 L 29.90550804138184 38.72190093994141 L 29.79864883422852 38.83419036865234 C 28.45270919799805 40.24847412109375 26.56109809875488 41.05959320068359 24.60883903503418 41.05959320068359 C 24.57053756713867 41.05959320068359 24.53195762634277 41.05929183959961 24.49359893798828 41.05867385864258 C 20.79341888427734 41.05865097045898 17.78506851196289 38.51952362060547 17.78506851196289 35.39850234985352 L 17.78506851196289 35.39270401000977 L 17.78461837768555 35.38691329956055 C 17.78171920776367 35.34944152832031 17.78171920776367 35.31144332885742 17.78461837768555 35.27397155761719 L 17.78583908081055 35.25826263427734 L 17.78376770019531 35.24264144897461 C 17.74944877624512 34.984130859375 17.79380798339844 34.7246208190918 17.91204833984375 34.49218368530273 L 22.06014823913574 26.32494163513184 C 22.6157283782959 25.21752166748047 23.7298583984375 24.52999305725098 24.96807861328125 24.52999305725098 L 56.49356842041016 24.52999305725098 L 56.50387954711914 24.52997207641602 C 57.74208831787109 24.52997207641602 58.85619735717773 25.2175121307373 59.41144943237305 26.32427215576172 L 63.47336959838867 34.46962356567383 C 63.58791732788086 34.70047378540039 63.63005828857422 34.957763671875 63.59509658813477 35.21340179443359 L 63.59287643432617 35.22964096069336 L 63.59421920776367 35.2459831237793 C 63.5970573425293 35.28063201904297 63.59706878662109 35.31578063964844 63.5942268371582 35.3504524230957 L 63.59372711181641 35.35656356811523 L 63.59372711181641 35.3626823425293 C 63.59372711181641 36.58371353149414 63.16586685180664 37.73757171630859 62.35641860961914 38.69954299926758 C 61.56050872802734 39.64539337158203 60.45270919799805 40.34430313110352 59.15275955200195 40.7206916809082 L 59.04447937011719 40.75204086303711 L 59.04447937011719 40.86477279663086 L 59.04447937011719 56.34656143188477 C 59.04447937011719 58.15229415893555 57.57540893554688 59.62443161010742 55.76968765258789 59.62820053100586 L 55.76999664306641 59.62820053100586 Z M 38.31089019775391 46.64671325683594 C 37.63562774658203 46.64671325683594 37.08626937866211 47.19608306884766 37.08626937866211 47.87134170532227 L 37.08626937866211 56.92686080932617 L 37.08626937866211 57.07686233520508 L 37.23626708984375 57.07686233520508 L 43.75566864013672 57.07686233520508 L 43.90567016601562 57.07686233520508 L 43.90567016601562 56.92686080932617 L 43.90567016601562 47.87134170532227 C 43.90567016601562 47.19608306884766 43.35629653930664 46.64671325683594 42.68103790283203 46.64671325683594 L 38.31089019775391 46.64671325683594 Z M 29.89297866821289 34.08701324462891 C 30.60033798217773 34.08701324462891 31.17581748962402 34.66249084472656 31.17581748962402 35.36984252929688 C 31.17581748962402 37.04722213745117 33.07190704345703 38.46432113647461 35.31625747680664 38.46432113647461 C 37.56061935424805 38.46432113647461 39.45670700073242 37.04722213745117 39.45670700073242 35.36984252929688 C 39.45670700073242 34.66249084472656 40.03218841552734 34.08701324462891 40.73954772949219 34.08701324462891 C 41.4468994140625 34.08701324462891 42.02237701416016 34.66249084472656 42.02237701416016 35.36984252929688 C 42.02237701416016 37.04334259033203 43.91519927978516 38.45716094970703 46.15567016601562 38.45716094970703 C 48.52541732788086 38.45716094970703 50.29611968994141 36.67591094970703 50.29611968994141 35.08328247070312 C 50.29611968994141 34.37592315673828 50.87159729003906 33.80044174194336 51.57895660400391 33.80044174194336 C 52.28630828857422 33.80044174194336 52.86178970336914 34.37592315673828 52.86178970336914 35.08328247070312 C 52.86178970336914 36.67591094970703 54.62941741943359 38.45716094970703 56.99506759643555 38.45716094970703 C 58.06550979614258 38.45716094970703 59.07269668579102 38.14205169677734 59.83107757568359 37.56988143920898 C 60.60390853881836 36.98682403564453 61.03154754638672 36.20318222045898 61.03521728515625 35.36334228515625 L 61.03536987304688 35.32798385620117 L 61.01971817016602 35.29628372192383 L 57.12957000732422 27.41568183898926 L 57.12838745117188 27.41328239440918 L 57.12711715698242 27.41092300415039 C 57.00327682495117 27.18111228942871 56.76417922973633 27.0383415222168 56.50312805175781 27.0383415222168 L 24.97834777832031 27.03835296630859 C 24.70892906188965 27.03944206237793 24.4658374786377 27.18877220153809 24.34333801269531 27.42806243896484 L 20.35258865356445 35.30925369262695 L 20.33608818054199 35.34182357788086 L 20.33641815185547 35.37833404541016 C 20.35140800476074 37.07995223999023 22.20880889892578 38.46432113647461 24.47685813903809 38.46432113647461 C 26.71732902526855 38.46432113647461 28.61014747619629 37.04722213745117 28.61014747619629 35.36984252929688 C 28.61014747619629 34.66249084472656 29.18562889099121 34.08701324462891 29.89297866821289 34.08701324462891 Z" stroke="none"/><path d="M 56.50386810302734 24.67997360229492 L 56.50387573242188 24.67997360229492 L 56.49356842041016 24.67999267578125 L 24.96806716918945 24.67999267578125 C 23.78694915771484 24.67999267578125 22.72419738769531 25.33582305908203 22.19388961791992 26.39286041259766 L 18.04573822021484 34.5601921081543 C 17.94132995605469 34.76545333862305 17.90215682983398 34.99461364746094 17.93245697021484 35.222900390625 L 17.93660736083984 35.25414276123047 L 17.93416976928711 35.28555297851562 C 17.93186950683594 35.31534194946289 17.93186950683594 35.34554290771484 17.93416976928711 35.37532043457031 L 17.9350700378418 35.39850234985352 C 17.9350700378418 38.43681335449219 20.87612915039062 40.90865325927734 24.49601745605469 40.90869140625 C 26.44776153564453 40.94008255004883 28.34638977050781 40.14261627197266 29.68998718261719 38.73078155517578 L 29.90371704101562 38.5062141418457 L 30.12114715576172 38.72719192504883 C 31.48592758178711 40.11424255371094 33.38468933105469 40.90975189208984 35.33058929443359 40.90975189208984 C 37.27649688720703 40.90975189208984 39.17525863647461 40.11424255371094 40.5400276184082 38.72719192504883 L 40.7574577331543 38.5062141418457 L 40.97118759155273 38.73078155517578 C 42.28895950317383 40.11545181274414 44.14095687866211 40.90960311889648 46.05231857299805 40.90960311889648 C 46.08993911743164 40.90960311889648 46.12751007080078 40.90929412841797 46.16837692260742 40.90865325927734 C 48.14756774902344 40.89800262451172 50.03231048583984 40.03947067260742 51.33934020996094 38.55322265625 L 51.56350708007812 38.29831314086914 L 51.78891754150391 38.5521125793457 C 52.96312713623047 39.87419128417969 54.57978057861328 40.68862152099609 56.34105682373047 40.84535217285156 L 56.61446762084961 40.86968231201172 L 56.61444854736328 56.34271240234375 C 56.61737823486328 56.57082366943359 56.52713012695312 56.79477310180664 56.36683654785156 56.95711135864258 C 56.20658111572266 57.11944198608398 55.98381042480469 57.21253967285156 55.75566864013672 57.21253967285156 L 45.58342742919922 57.21253204345703 L 45.58342742919922 47.87200164794922 C 45.57986831665039 46.26296234130859 44.26791763305664 44.95101165771484 42.65954971313477 44.94745254516602 L 38.29005813598633 44.94745254516602 C 36.68102645874023 44.95101165771484 35.36907958984375 46.26296234130859 35.36550903320312 47.87133407592773 L 35.36550903320312 57.22686004638672 L 25.84521865844727 57.22686004638672 C 25.61705780029297 57.22686004638672 25.39426803588867 57.13375091552734 25.2340087890625 56.97140502929688 C 25.07373809814453 56.80907440185547 24.98349761962891 56.58515167236328 24.98640823364258 56.36089324951172 L 24.98640823364258 45.05581283569336 C 24.98640823364258 44.43117141723633 24.47821807861328 43.92298126220703 23.85357666015625 43.92298126220703 C 23.22892761230469 43.92298126220703 22.72073745727539 44.43117141723633 22.72073745727539 45.05581283569336 L 22.72073745727539 56.34656143188477 C 22.72073745727539 58.06976318359375 24.12265777587891 59.47460174560547 25.84521865844727 59.47820281982422 L 55.76937103271484 59.47820281982422 C 57.49256896972656 59.47460174560547 58.89447784423828 58.06976318359375 58.89447021484375 56.34656143188477 L 58.89447021484375 40.63931274414062 L 59.11103057861328 40.57661056518555 C 60.38236999511719 40.20850372314453 61.46492004394531 39.52602386474609 62.24163818359375 38.60296249389648 C 63.02806091308594 37.66838073730469 63.4437255859375 36.54791259765625 63.4437255859375 35.3626823425293 L 63.44472885131836 35.33823394775391 C 63.4468994140625 35.31167221069336 63.4468994140625 35.28476333618164 63.44471740722656 35.25824356079102 L 63.44203948974609 35.22556304931641 L 63.44648742675781 35.19308090209961 C 63.47735595703125 34.96732330322266 63.44013977050781 34.7401237487793 63.33912658691406 34.53656387329102 L 59.27735900878906 26.39152145385742 C 58.74773788452148 25.33584213256836 57.68499755859375 24.68001174926758 56.50386810302734 24.67997360229492 M 56.99506759643555 38.60716247558594 C 54.5435676574707 38.60716247558594 52.71178817749023 36.74672317504883 52.71178817749023 35.08328247070312 C 52.71178817749023 34.45863342285156 52.20359802246094 33.95044326782227 51.57894897460938 33.95044326782227 C 50.95430755615234 33.95044326782227 50.44611740112305 34.45863342285156 50.44611740112305 35.08328247070312 C 50.44611740112305 35.93080139160156 49.99346923828125 36.80860137939453 49.20421981811523 37.49162292480469 C 48.37297821044922 38.21099090576172 47.29030990600586 38.60716247558594 46.15567016601562 38.60716247558594 C 43.83388900756836 38.60716247558594 41.87237930297852 37.12465286254883 41.87237930297852 35.36984252929688 C 41.87237930297852 34.74520111083984 41.36418914794922 34.23701095581055 40.73954772949219 34.23701095581055 C 40.11489868164062 34.23701095581055 39.60670852661133 34.74520111083984 39.60670852661133 35.36984252929688 C 39.60670852661133 36.24008178710938 39.14296722412109 37.06143188476562 38.30091857910156 37.68260192871094 C 37.4864501953125 38.28343200683594 36.42646789550781 38.61432266235352 35.31625747680664 38.61432266235352 C 34.20604705810547 38.61432266235352 33.14608001708984 38.28343200683594 32.33160781860352 37.68260192871094 C 31.48955917358398 37.06143188476562 31.02581787109375 36.24008178710938 31.02581787109375 35.36984252929688 C 31.02581787109375 34.74520111083984 30.51762771606445 34.23701095581055 29.89297866821289 34.23701095581055 C 29.26833724975586 34.23701095581055 28.76014709472656 34.74520111083984 28.76014709472656 35.36984252929688 C 28.76014709472656 37.12853240966797 26.79863739013672 38.61432266235352 24.47686004638672 38.61432266235352 C 22.1268196105957 38.61432266235352 20.2021369934082 37.16325378417969 20.18641662597656 35.37965393066406 L 20.1857795715332 35.30663299560547 L 24.20981979370117 27.35970306396484 C 24.35798645019531 27.07028198242188 24.65199661254883 26.88967132568359 24.97834777832031 26.88835144042969 L 56.50312805175781 26.88834381103516 C 56.81943893432617 26.88834381103516 57.109130859375 27.06132125854492 57.25917053222656 27.33978271484375 L 57.26406860351562 27.34929275512695 L 61.18552780151367 35.29329299926758 L 61.18521881103516 35.36399078369141 C 61.18133544921875 36.25177383422852 60.73250579833984 37.07770156860352 59.92141723632812 37.68963241577148 C 59.13717651367188 38.28131103515625 58.09790802001953 38.60716247558594 56.99506759643555 38.60716247558594 M 44.05566787719727 57.22686004638672 L 36.93625640869141 57.22686004638672 L 36.93625640869141 47.87134170532227 C 36.93625640869141 47.11337280273438 37.55291748046875 46.49671173095703 38.31089019775391 46.49671173095703 L 42.68103790283203 46.49671173095703 C 43.43900680541992 46.49671173095703 44.05566787719727 47.11337280273438 44.05566787719727 47.87134170532227 L 44.05566787719727 57.22686004638672 M 56.50387954711914 24.37997817993164 C 57.79082489013672 24.38000869750977 58.96816253662109 25.10617065429688 59.54550933837891 26.25700378417969 L 63.60759735107422 34.40268325805664 C 63.73518753051758 34.6598014831543 63.78260803222656 34.94932174682617 63.74372100830078 35.23372268676758 C 63.74723815917969 35.27664184570312 63.74723815917969 35.31976318359375 63.74372863769531 35.3626823425293 C 63.74372863769531 37.95611190795898 61.86670684814453 40.09104156494141 59.19446563720703 40.86477279663086 L 59.19446563720703 56.34656143188477 C 59.19448089599609 58.239013671875 57.66243743896484 59.77425384521484 55.76999664306641 59.77820205688477 L 25.84521865844727 59.77820205688477 C 23.95277786254883 59.77425384521484 22.42073822021484 58.239013671875 22.42073822021484 56.34656143188477 L 22.42073822021484 45.05581283569336 C 22.42073822021484 44.26448059082031 23.06223678588867 43.62298202514648 23.85357666015625 43.62298202514648 C 24.6449089050293 43.62298202514648 25.28640747070312 44.26448059082031 25.28640747070312 45.05581283569336 L 25.28640747070312 56.36089324951172 C 25.28448867797852 56.51033020019531 25.3425178527832 56.65431213378906 25.44748687744141 56.7606315612793 C 25.55248641967773 56.86699295043945 25.69571685791016 56.92686462402344 25.84521865844727 56.92686462402344 L 35.06550979614258 56.92686462402344 L 35.06550979614258 47.87133407592773 C 35.0694580078125 46.09247207641602 36.51052856445312 44.65139389038086 38.28939819335938 44.64745330810547 L 42.65954971313477 44.64745330810547 C 44.43840789794922 44.65139389038086 45.87948989868164 46.09247207641602 45.88342666625977 47.87134170532227 L 45.88342666625977 56.91253280639648 L 55.75566864013672 56.91254425048828 C 55.75568389892578 56.91254425048828 55.75568771362305 56.91254425048828 55.75570678710938 56.91254425048828 C 55.90513610839844 56.91254425048828 56.04837036132812 56.85268020629883 56.15335845947266 56.74634170532227 C 56.25835800170898 56.63999176025391 56.31639099121094 56.49600219726562 56.31446838378906 56.34656143188477 L 56.31446838378906 41.14417266845703 C 54.48402786254883 40.98128128051758 52.78493881225586 40.12533187866211 51.56462097167969 38.7513313293457 C 50.19984817504883 40.30324172973633 48.23660659790039 41.1975212097168 46.16999816894531 41.20865249633789 C 44.12660980224609 41.24136734008789 42.16272735595703 40.4179801940918 40.75386810302734 38.93760299682617 C 39.32365798950195 40.39116287231445 37.36979675292969 41.20975112915039 35.33058929443359 41.20975112915039 C 33.29137802124023 41.20975112915039 31.33752822875977 40.39116287231445 29.90730667114258 38.93760299682617 C 28.49845886230469 40.4179801940918 26.53467178344727 41.24150466918945 24.49118804931641 41.20865249633789 C 20.70849990844727 41.20865249633789 17.63506698608398 38.60089111328125 17.63506698608398 35.39850234985352 C 17.63155746459961 35.35320281982422 17.63155746459961 35.30769348144531 17.63506698608398 35.26238250732422 C 17.59690856933594 34.97492218017578 17.64686965942383 34.68264389038086 17.77834701538086 34.42417144775391 L 21.92640686035156 26.25701141357422 C 22.50371170043945 25.10630416870117 23.68084716796875 24.37998962402344 24.96807098388672 24.37998962402344 C 24.96909332275391 24.37998962402344 24.97015762329102 24.37998962402344 24.9711799621582 24.3799934387207 L 56.49356842041016 24.3799934387207 C 56.49703598022461 24.37998199462891 56.50041198730469 24.37997817993164 56.50387954711914 24.37997817993164 Z M 56.99506759643555 38.30716323852539 C 59.13715744018555 38.30716323852539 60.87804794311523 37.00327301025391 60.88521575927734 35.3626823425293 L 56.99505615234375 27.48208236694336 C 56.89717102050781 27.30039978027344 56.70687484741211 27.18799591064453 56.50074005126953 27.18835067749023 L 24.97834777832031 27.18835067749023 C 24.76673889160156 27.18921279907227 24.57328796386719 27.30805206298828 24.47686004638672 27.49641036987305 L 20.48640823364258 35.37701034545898 C 20.50074005126953 37.00327301025391 22.32043838500977 38.31432342529297 24.47686004638672 38.31432342529297 C 26.63327789306641 38.31432342529297 28.46014785766602 36.96745300292969 28.46014785766602 35.36984252929688 C 28.46014785766602 34.57851409912109 29.10164642333984 33.93701171875 29.89297866821289 33.93701171875 C 30.68430709838867 33.93701171875 31.3258171081543 34.57851409912109 31.3258171081543 35.36984252929688 C 31.3258171081543 36.96745300292969 33.15267944335938 38.31432342529297 35.31625747680664 38.31432342529297 C 37.4798469543457 38.31432342529297 39.30670928955078 36.96745300292969 39.30670928955078 35.36984252929688 C 39.30670928955078 34.57851409912109 39.94821929931641 33.93701171875 40.73954772949219 33.93701171875 C 41.53087997436523 33.93701171875 42.17237854003906 34.57851409912109 42.17237854003906 35.36984252929688 C 42.17237854003906 36.96029281616211 44.00640869140625 38.30716323852539 46.15567016601562 38.30716323852539 C 48.4410400390625 38.30716323852539 50.1461181640625 36.60208129882812 50.1461181640625 35.08328247070312 C 50.1461181640625 34.29194259643555 50.78762054443359 33.65044403076172 51.57894897460938 33.65044403076172 C 52.37028884887695 33.65044403076172 53.01178741455078 34.29194259643555 53.01178741455078 35.08328247070312 C 53.01178741455078 36.60208129882812 54.71685791015625 38.30716323852539 56.99506759643555 38.30716323852539 Z M 43.75566864013672 56.92686462402344 L 43.75566864013672 47.87134170532227 C 43.75566864013672 47.2778434753418 43.27453994750977 46.79671096801758 42.68103790283203 46.79671096801758 L 38.31089019775391 46.79671096801758 C 37.71738815307617 46.79671096801758 37.23625946044922 47.2778434753418 37.23625946044922 47.87134170532227 L 37.23625946044922 56.92686462402344 L 43.75566864013672 56.92686462402344 Z" stroke="none" fill="#fff"/></g></g></g></svg>