<svg xmlns="http://www.w3.org/2000/svg" xmlns:xlink="http://www.w3.org/1999/xlink" width="48" height="48" viewBox="0 0 48 48">
  <defs>
    <clipPath id="clip-path">
      <rect id="Rectangle_7" data-name="Rectangle 7" width="48" height="48" transform="translate(114 60.901)" fill="#c6ced2" stroke="#707070" stroke-width="1"/>
    </clipPath>
  </defs>
  <g id="Mask_Group_3" data-name="Mask Group 3" transform="translate(-114 -60.901)" clip-path="url(#clip-path)">
    <g id="Group" transform="translate(114 62.901)">
      <g id="Compound_Path" data-name="Compound Path" transform="translate(-8.8 -8.3)" fill="#c6ced2">
        <path d="M 48.4571418762207 53.09177780151367 L 16.22857284545898 53.09177780151367 C 12.27029323577881 53.09177780151367 9.050004005432129 50.05436706542969 9.050004005432129 46.32087707519531 L 9.050004005432129 15.32089805603027 C 9.050004005432129 11.5874080657959 12.27029323577881 8.54999828338623 16.22857284545898 8.54999828338623 L 48.4571418762207 8.54999828338623 C 52.41542434692383 8.54999828338623 55.63571166992188 11.5874080657959 55.63571166992188 15.32089805603027 L 55.63571166992188 46.32087707519531 C 55.63571166992188 50.05436706542969 52.41542434692383 53.09177780151367 48.4571418762207 53.09177780151367 Z M 11.9785737991333 24.68412780761719 L 11.9785737991333 24.93412780761719 L 11.9785737991333 46.32087707519531 C 11.9785737991333 48.54328918457031 13.88511371612549 50.35136032104492 16.22857284545898 50.35136032104492 L 48.4571418762207 50.35136032104492 C 50.80060195922852 50.35136032104492 52.7071418762207 48.54328918457031 52.7071418762207 46.32087707519531 L 52.7071418762207 24.93412780761719 L 52.7071418762207 24.68412780761719 L 52.4571418762207 24.68412780761719 L 12.2285737991333 24.68412780761719 L 11.9785737991333 24.68412780761719 Z M 16.22857284545898 11.29041862487793 C 13.88511371612549 11.29041862487793 11.9785737991333 13.09848880767822 11.9785737991333 15.32089805603027 L 11.9785737991333 21.69371795654297 L 11.9785737991333 21.94371795654297 L 12.2285737991333 21.94371795654297 L 52.4571418762207 21.94371795654297 L 52.7071418762207 21.94371795654297 L 52.7071418762207 21.69371795654297 L 52.7071418762207 15.32089805603027 C 52.7071418762207 13.09848880767822 50.80060195922852 11.29041862487793 48.4571418762207 11.29041862487793 L 16.22857284545898 11.29041862487793 Z" stroke="none"/>
        <path d="M 16.22856903076172 8.799999237060547 C 12.40813827514648 8.799999237060547 9.299999237060547 11.72525787353516 9.299999237060547 15.32089996337891 L 9.299999237060547 46.32086944580078 C 9.299999237060547 49.91650772094727 12.40813827514648 52.84177780151367 16.22856903076172 52.84177780151367 L 48.45715713500977 52.84176635742188 C 52.2775764465332 52.84176635742188 55.38570785522461 49.91650772094727 55.38570785522461 46.32087707519531 L 55.38570785522461 15.32089996337891 C 55.38570785522461 11.72525787353516 52.27756500244141 8.799999237060547 48.45713806152344 8.799999237060547 L 16.22856903076172 8.799999237060547 M 52.95713806152344 22.19371795654297 L 11.72856903076172 22.19371795654297 L 11.72856903076172 15.32089996337891 C 11.72856903076172 12.97879028320312 13.71635055541992 11.06998062133789 16.17142868041992 11.0407600402832 L 16.17142868041992 11.0404167175293 L 48.45713806152344 11.0404167175293 C 50.93844604492188 11.0404167175293 52.95713806152344 12.96063995361328 52.95713806152344 15.32089996337891 L 52.95713806152344 22.19371795654297 M 48.45713806152344 50.60135650634766 L 16.22856903076172 50.60135650634766 C 13.74725723266602 50.60135650634766 11.72856903076172 48.68113708496094 11.72856903076172 46.32086944580078 L 11.72856903076172 24.43412780761719 L 52.95713806152344 24.43412780761719 L 52.95713806152344 46.32086944580078 C 52.95713806152344 48.68113708496094 50.93844604492188 50.60135650634766 48.45713806152344 50.60135650634766 M 16.22856903076172 8.299999237060547 L 48.45713806152344 8.299999237060547 C 52.55982971191406 8.299999237060547 55.88570785522461 11.44336700439453 55.88570785522461 15.32089996337891 L 55.88570785522461 46.32087707519531 C 55.88570785522461 50.19841003417969 52.55982971191406 53.34177780151367 48.45713806152344 53.34176635742188 L 16.22856903076172 53.34177780151367 C 12.12588882446289 53.34177780151367 8.799999237060547 50.19841003417969 8.799999237060547 46.32086944580078 L 8.799999237060547 15.32089996337891 C 8.799999237060547 11.44336700439453 12.12588882446289 8.299999237060547 16.22856903076172 8.299999237060547 Z M 16.22856903076172 11.5404167175293 L 16.17142868041992 11.5404167175293 L 16.22856903076172 11.5404167175293 C 14.01942825317383 11.5404167175293 12.22856903076172 13.23299026489258 12.22856903076172 15.32089996337891 L 12.22856903076172 21.69371795654297 L 52.45713806152344 21.69371795654297 L 52.45713806152344 15.32089996337891 C 52.45713806152344 13.23299026489258 50.66627502441406 11.5404167175293 48.45713806152344 11.5404167175293 L 16.22856903076172 11.5404167175293 Z M 48.45713806152344 50.10135650634766 C 50.66627502441406 50.10135650634766 52.45713806152344 48.40877914428711 52.45713806152344 46.32086944580078 L 52.45713806152344 24.93412780761719 L 12.22856903076172 24.93412780761719 L 12.22856903076172 46.32086944580078 C 12.22856903076172 48.40877914428711 14.01942825317383 50.10135650634766 16.22856903076172 50.10135650634766 L 48.45713806152344 50.10135650634766 Z" stroke="none" fill="#fff"/>
      </g>
      <circle id="Path" cx="2.286" cy="2.286" r="2.286" transform="translate(6.057 6.629)" fill="#c6ced2"/>
      <circle id="Path-2" data-name="Path" cx="2.286" cy="2.286" r="2.286" transform="translate(13.143 6.629)" fill="#c6ced2"/>
      <path id="Path-3" data-name="Path" d="M49.714,23.557H63.886A1.591,1.591,0,0,0,65.6,22.129,1.591,1.591,0,0,0,63.886,20.7H49.714A1.591,1.591,0,0,0,48,22.129,1.591,1.591,0,0,0,49.714,23.557Z" transform="translate(-25.029 -13.043)" fill="#c6ced2"/>
    </g>
  </g>
</svg>
