<svg xmlns="http://www.w3.org/2000/svg" xmlns:xlink="http://www.w3.org/1999/xlink" width="48" height="48" viewBox="0 0 48 48"><defs><clipPath id="a"><rect width="48" height="48" transform="translate(123 464)" fill="#c6ced2" stroke="#707070" stroke-width="1"/></clipPath></defs><g transform="translate(-123 -464)" clip-path="url(#a)"><g transform="translate(125 469)"><path d="M16.209,17.912l-3.273-2.4A7.237,7.237,0,0,1,10.1,9.839,3.6,3.6,0,0,1,13.373,6.13a3.8,3.8,0,0,1,3.273,1.091A4.59,4.59,0,0,1,19.918,6.13a3.6,3.6,0,0,1,3.273,3.709,7.237,7.237,0,0,1-2.836,5.673l-3.055,2.4A.974.974,0,0,1,16.209,17.912Zm-2.182-9.6a1.661,1.661,0,0,0-1.745,1.527,4.665,4.665,0,0,0,1.964,3.927l2.4,1.745,2.4-1.745a4.665,4.665,0,0,0,1.964-3.927c0-1.309-.873-1.527-1.309-1.527A2.089,2.089,0,0,0,17.736,9.4a1.45,1.45,0,0,1-1.091.873h0c-.436,0-1.091-.436-1.091-.873A1.4,1.4,0,0,0,14.027,8.312Z" transform="translate(4.955 -0.239)" fill="#c6ced2"/><path d="M45.745,9.509H41.382V4.491A1.031,1.031,0,0,0,40.291,3.4H9.527A1.031,1.031,0,0,0,8.436,4.491V9.509H4.073a.939.939,0,0,0-.873.873V38.964a3.356,3.356,0,0,0,3.273,3.273H43.564a3.356,3.356,0,0,0,3.273-3.273V10.382A1.45,1.45,0,0,0,45.745,9.509Zm-4.364,2.182h3.273v5.236l-3.273,1.309ZM10.618,5.582H39.2V19.109L25.018,24.782,10.836,19.109V5.582ZM5.164,11.691H8.436v6.545L5.164,17.145ZM44.436,38.964a1.031,1.031,0,0,1-1.091,1.091H6.255a1.031,1.031,0,0,1-1.091-1.091V19.327l18.982,7.418a.974.974,0,0,0,1.091,0c3.273-1.309,18.982-7.418,18.982-7.418V38.964Z" transform="translate(-3.2 -3.4)" fill="#c6ced2"/></g></g></svg>