<svg xmlns="http://www.w3.org/2000/svg" xmlns:xlink="http://www.w3.org/1999/xlink" width="37.44" height="48" viewBox="0 0 37.44 48">
  <defs>
    <clipPath id="clip-path">
      <rect id="Rectangle_29" data-name="Rectangle 29" width="37.44" height="48" transform="translate(-1 -1)" fill="#fff"/>
    </clipPath>
  </defs>
  <g id="upsells-icon" transform="translate(1 1)" clip-path="url(#clip-path)">
    <g id="Layer_2" data-name="Layer 2" transform="translate(0.442 0.44)">
      <g id="Group_122" data-name="Group 122">
        <line id="Line_3" data-name="Line 3" y1="13.435" transform="translate(17.297 22.925)" fill="none" stroke="#c6ced2" stroke-linecap="round" stroke-linejoin="round" stroke-width="2.3"/>
        <path id="Path_142" data-name="Path 142" d="M26.43,55.313,32,49.75l5.573,5.563" transform="translate(-14.706 -26.83)" fill="none" stroke="#c6ced2" stroke-linecap="round" stroke-linejoin="round" stroke-width="2.3"/>
        <path id="Path_143" data-name="Path 143" d="M31.671,59.34H6.927a4.925,4.925,0,0,1-4.862-5.693L6.519,25.5h25.56l4.459,28.147a4.925,4.925,0,0,1-4.867,5.693Z" transform="translate(-2.004 -14.22)" fill="none" stroke="#c6ced2" stroke-linecap="round" stroke-linejoin="round" stroke-width="2.3"/>
        <path id="Path_144" data-name="Path 144" d="M37.522,17.067V8.154A6.154,6.154,0,0,0,31.354,2h0A6.154,6.154,0,0,0,25.22,8.154v8.914" transform="translate(-14.077 -2)" fill="none" stroke="#c6ced2" stroke-linecap="round" stroke-linejoin="round" stroke-width="2.3"/>
      </g>
    </g>
  </g>
</svg>
