<svg xmlns="http://www.w3.org/2000/svg" xmlns:xlink="http://www.w3.org/1999/xlink" width="48" height="48" viewBox="0 0 48 48"><defs><clipPath id="a"><rect width="48" height="48" transform="translate(121 620)" fill="#c6ced2" stroke="#707070" stroke-width="1"/></clipPath></defs><g transform="translate(-121 -620)" clip-path="url(#a)"><g transform="translate(120 620)"><g fill="#c6ced2"><path d="M 40.16666793823242 47.85000228881836 L 19.79999732971191 47.85000228881836 C 19.65249824523926 47.85000228881836 19.50603675842285 47.82709121704102 19.36470794677734 47.78192138671875 L 19.33200836181641 47.7714729309082 L 19.29800796508789 47.77628326416016 C 18.95251655578613 47.82520294189453 18.59430694580078 47.85000228881836 18.23333740234375 47.85000228881836 C 13.99672698974609 47.85000228881836 10.54999732971191 44.40327072143555 10.54999732971191 40.16667175292969 L 10.54999732971191 19.80000114440918 L 10.54999732971191 19.65000152587891 L 10.39999771118164 19.65000152587891 L 2.566667318344116 19.65000152587891 C 1.785517454147339 19.65000152587891 1.149997472763062 19.01448249816895 1.149997472763062 18.23333168029785 L 1.149997472763062 7.266672134399414 C 1.149997472763062 3.893931865692139 3.893927335739136 1.150001883506775 7.266667366027832 1.150001883506775 L 38.60000610351562 1.150001883506775 C 41.10888671875 1.150001883506775 43.15000915527344 3.191121816635132 43.15000915527344 5.70000171661377 L 43.15000915527344 10.60367202758789 L 43.15000915527344 10.7198314666748 L 43.26246643066406 10.74890232086182 C 44.3677978515625 11.03460216522217 45.36093902587891 11.63368225097656 46.13453674316406 12.48138236999512 C 48.40488815307617 14.96466159820557 48.40486907958984 19.00635147094727 46.13459777832031 21.49108123779297 L 43.18928909301758 24.71370124816895 L 43.15000915527344 24.75668144226074 L 43.15000915527344 24.81490135192871 L 43.15000915527344 35.46667098999023 L 43.15000915527344 35.61667251586914 L 43.30000686645508 35.61667251586914 L 46.4333381652832 35.61667251586914 C 47.2144889831543 35.61667251586914 47.85000610351562 36.25219345092773 47.85000610351562 37.03334045410156 L 47.85000610351562 40.16667175292969 C 47.85000610351562 44.40327072143555 44.40327835083008 47.85000228881836 40.16666793823242 47.85000228881836 Z M 25.91666793823242 38.45000076293945 L 25.91666793823242 38.60000228881836 L 25.91666793823242 40.16667175292969 C 25.91666793823242 41.841552734375 25.38423728942871 43.43563079833984 24.37693786621094 44.77658081054688 L 24.19657707214355 45.01667022705078 L 24.49686813354492 45.01667022705078 L 40.16666793823242 45.01667022705078 C 42.84096908569336 45.01667022705078 45.01666641235352 42.84097290039062 45.01666641235352 40.16667175292969 L 45.01666641235352 38.60000228881836 L 45.01666641235352 38.45000076293945 L 44.86666870117188 38.45000076293945 L 26.0666675567627 38.45000076293945 L 25.91666793823242 38.45000076293945 Z M 12.40139770507812 3.983331918716431 L 12.53262710571289 4.208791732788086 C 13.09711742401123 5.178601741790771 13.38333702087402 6.207421779632568 13.38333702087402 7.266672134399414 L 13.38333702087402 18.23333168029785 L 13.38333702087402 40.16667175292969 C 13.38333702087402 42.84097290039062 15.55903720855713 45.01667022705078 18.23333740234375 45.01667022705078 C 20.90763664245605 45.01667022705078 23.08333778381348 42.84097290039062 23.08333778381348 40.16667175292969 L 23.08333778381348 37.03334045410156 C 23.08333778381348 36.25219345092773 23.71884727478027 35.61667251586914 24.49999809265137 35.61667251586914 L 40.16666793823242 35.61667251586914 L 40.31666564941406 35.61667251586914 L 40.31666564941406 35.46667098999023 L 40.31666564941406 28.24277114868164 L 40.31666564941406 27.85697174072266 L 40.05605697631836 28.14145278930664 L 39.64559555053711 28.58951187133789 C 39.37833786010742 28.88222122192383 38.99729919433594 29.05000114440918 38.60000610351562 29.05000114440918 C 38.20271682739258 29.05000114440918 37.82167816162109 28.88222122192383 37.5545768737793 28.58969116210938 L 31.06537818908691 21.49105262756348 C 28.79286766052246 19.00708198547363 28.79286766052246 14.96545219421387 31.06533813476562 12.48152160644531 C 32.20392608642578 11.23594188690186 33.72749710083008 10.5500020980835 35.35543823242188 10.5500020980835 C 36.48131561279297 10.5500020980835 37.57449722290039 10.88204193115234 38.51680755615234 11.51024150848389 L 38.60013580322266 11.5658016204834 L 38.68339920043945 11.51011180877686 C 39.15129852294922 11.19718170166016 39.66488647460938 10.95529174804688 40.20991897583008 10.79116153717041 L 40.31666564941406 10.75901222229004 L 40.31666564941406 10.64753150939941 L 40.31666564941406 5.70000171661377 C 40.31666564941406 4.753421783447266 39.54657745361328 3.983331918716431 38.60000610351562 3.983331918716431 L 12.66226768493652 3.983331918716431 L 12.40139770507812 3.983331918716431 Z M 35.35543823242188 13.38333225250244 C 34.53373718261719 13.38333225250244 33.7527961730957 13.74167156219482 33.15648651123047 14.39235210418701 C 31.8714771270752 15.79804229736328 31.8714771270752 18.17293167114258 33.15635681152344 19.57847213745117 L 38.48928833007812 25.4127311706543 L 38.60000610351562 25.53386116027832 L 38.71072769165039 25.4127311706543 L 44.04365921020508 19.57846260070801 C 45.32852554321289 18.17293167114258 45.32852554321289 15.79804229736328 44.04364776611328 14.39249229431152 C 43.44720840454102 13.74167156219482 42.66626739501953 13.38333225250244 41.84456634521484 13.38333225250244 C 41.02223587036133 13.38333225250244 40.24180603027344 13.74173164367676 39.64704895019531 14.39251232147217 C 39.3924560546875 14.6706018447876 39.01108932495117 14.83015155792236 38.60078811645508 14.83015155792236 C 38.19048690795898 14.83015155792236 37.80911636352539 14.6706018447876 37.55444717407227 14.39241218566895 C 36.95806884765625 13.74167156219482 36.17712783813477 13.38333225250244 35.35543823242188 13.38333225250244 Z M 7.266667366027832 3.983331918716431 C 5.456237316131592 3.983331918716431 3.98333740234375 5.456232070922852 3.98333740234375 7.266672134399414 L 3.98333740234375 16.66666221618652 L 3.98333740234375 16.8166618347168 L 4.133337497711182 16.8166618347168 L 10.39999771118164 16.8166618347168 L 10.54999732971191 16.8166618347168 L 10.54999732971191 16.66666221618652 L 10.54999732971191 7.266672134399414 C 10.54999732971191 5.456232070922852 9.07709789276123 3.983331918716431 7.266667366027832 3.983331918716431 Z" stroke="none"/><path d="M 40.16666793823242 47.70000076293945 C 44.3205680847168 47.70000076293945 47.70000839233398 44.32056045532227 47.70000839233398 40.16667175292969 L 47.70000839233398 37.03334045410156 C 47.70000839233398 36.33490371704102 47.13177871704102 35.76667022705078 46.4333381652832 35.76667022705078 L 43.00000762939453 35.76667022705078 L 43.00000762939453 24.69846153259277 L 46.02386856079102 21.38990211486816 C 48.24313735961914 18.96098136901855 48.24316787719727 15.01008224487305 46.02373886108398 12.58249187469482 C 45.26981735229492 11.75635147094727 44.30200576782227 11.17252159118652 43.22492599487305 10.89412212371826 L 43.00000762939453 10.83599185943604 L 43.00000762939453 5.70000171661377 C 43.00000762939453 3.273831844329834 41.02617645263672 1.300001859664917 38.60000610351562 1.300001859664917 L 7.266667366027832 1.300001859664917 C 3.976637363433838 1.300001859664917 1.299997448921204 3.976641893386841 1.299997448921204 7.266672134399414 L 1.299997448921204 18.23333168029785 C 1.299997448921204 18.93177223205566 1.868227481842041 19.50000190734863 2.566667318344116 19.50000190734863 L 10.6999979019165 19.50000190734863 L 10.6999979019165 40.16667175292969 C 10.6999979019165 44.32056045532227 14.07943725585938 47.70000076293945 18.23333740234375 47.70000076293945 C 18.5872974395752 47.70000076293945 18.93842697143555 47.67570114135742 19.2769775390625 47.62776184082031 L 19.34496688842773 47.61814117431641 L 19.41037750244141 47.63904190063477 C 19.53692817687988 47.67949295043945 19.66801834106445 47.70000076293945 19.79999732971191 47.70000076293945 L 40.16666793823242 47.70000076293945 M 25.76666831970215 38.30000305175781 L 45.16666793823242 38.30000305175781 L 45.16666793823242 40.16667175292969 C 45.16666793823242 42.92368316650391 42.92367553710938 45.16667175292969 40.16666793823242 45.16667175292969 L 23.89629745483398 45.16667175292969 L 24.25700759887695 44.68649291992188 C 25.24463653564453 43.37173080444336 25.76666831970215 41.80880355834961 25.76666831970215 40.16667175292969 L 25.76666831970215 38.30000305175781 M 12.14052772521973 3.833331823348999 L 38.60000610351562 3.833331823348999 C 39.62928771972656 3.833331823348999 40.46666717529297 4.670711994171143 40.46666717529297 5.70000171661377 L 40.46666717529297 10.87049198150635 L 40.25317764282227 10.93479156494141 C 39.72239685058594 11.09463214874268 39.22230911254883 11.33015155792236 38.76678848266602 11.63480186462402 L 38.60027694702148 11.74616146087646 L 38.43359756469727 11.63505172729492 C 37.51601791381836 11.02333164215088 36.45160675048828 10.70000171661377 35.35543823242188 10.70000171661377 C 33.77013778686523 10.70000171661377 32.2858772277832 11.36862182617188 31.1760082244873 12.58277225494385 C 28.95461654663086 15.01087188720703 28.95461654663086 18.96166229248047 31.17608833312988 21.38985252380371 L 37.66535568237305 28.48855209350586 C 37.90409851074219 28.75003242492676 38.24476623535156 28.90000152587891 38.60000610351562 28.90000152587891 C 38.95524597167969 28.90000152587891 39.29591751098633 28.75003242492676 39.53499603271484 28.48818206787109 L 40.46666717529297 27.47117233276367 L 40.46666717529297 35.76667022705078 L 24.49999809265137 35.76667022705078 C 23.80155754089355 35.76667022705078 23.23333740234375 36.33490371704102 23.23333740234375 37.03334045410156 L 23.23333740234375 40.16667175292969 C 23.23333740234375 42.92368316650391 20.99034690856934 45.16667175292969 18.23333740234375 45.16667175292969 C 15.47632789611816 45.16667175292969 13.23333740234375 42.92368316650391 13.23333740234375 40.16667175292969 L 13.23333740234375 7.266672134399414 C 13.23333740234375 6.23428201675415 12.95396709442139 5.230842113494873 12.40298748016357 4.284251689910889 L 12.14052772521973 3.833331823348999 M 35.35543823242188 13.23333168029785 C 36.21968841552734 13.23333168029785 37.03989791870117 13.60895156860352 37.66508865356445 14.2911319732666 C 37.89141845703125 14.53836154937744 38.23245620727539 14.68015193939209 38.60078811645508 14.68015193939209 C 38.9691162109375 14.68015193939209 39.31015777587891 14.53836154937744 39.53631591796875 14.2913122177124 C 40.15984725952148 13.60906219482422 40.97960662841797 13.23333168029785 41.84456634521484 13.23333168029785 C 42.70882797241211 13.23333168029785 43.52903747558594 13.60895156860352 44.15435791015625 14.29129219055176 C 45.48939895629883 15.75170230865479 45.48938751220703 18.21928215026855 44.15436553955078 19.67966270446777 L 38.60000610351562 25.75618171691895 L 33.04564666748047 19.6796817779541 C 31.71061706542969 18.21928215026855 31.71060752868652 15.75170230865479 33.0458984375 14.29101181030273 C 33.67096710205078 13.60895156860352 34.49117660522461 13.23333168029785 35.35543823242188 13.23333168029785 M 7.266667366027832 3.833331823348999 C 9.159807205200195 3.833331823348999 10.6999979019165 5.37352180480957 10.6999979019165 7.266672134399414 L 10.6999979019165 16.96666145324707 L 3.833337545394897 16.96666145324707 L 3.833337545394897 7.266672134399414 C 3.833337545394897 5.37352180480957 5.373527526855469 3.833331823348999 7.266667366027832 3.833331823348999 M 40.16666793823242 48 L 19.79999732971191 48 C 19.63236808776855 48 19.47099685668945 47.97337341308594 19.31903648376465 47.92480087280273 C 18.96496772766113 47.97493362426758 18.60149765014648 48 18.23333740234375 48 C 13.91403770446777 48 10.39999771118164 44.4859733581543 10.39999771118164 40.16667175292969 L 10.39999771118164 19.80000114440918 L 2.566667318344116 19.80000114440918 C 1.701867461204529 19.80000114440918 0.9999974370002747 19.09813117980957 0.9999974370002747 18.23333168029785 L 0.9999974370002747 7.266672134399414 C 0.9999974370002747 3.810601949691772 3.81059741973877 1.000001907348633 7.266667366027832 1.000001907348633 L 38.60000610351562 1.000001907348633 C 41.19126892089844 1.000001907348633 43.30000686645508 3.108731985092163 43.30000686645508 5.70000171661377 L 43.30000686645508 10.60367202758789 C 44.40920639038086 10.89037227630615 45.42753601074219 11.48413181304932 46.24533843994141 12.38027191162109 C 48.567138671875 14.91983222961426 48.567138671875 19.05113220214844 46.24533843994141 21.59226226806641 L 43.30000686645508 24.81490135192871 L 43.30000686645508 35.46667098999023 L 46.4333381652832 35.46667098999023 C 47.29813766479492 35.46667098999023 48.00000762939453 36.16854095458984 48.00000762939453 37.03334045410156 L 48.00000762939453 40.16667175292969 C 48.00000762939453 44.4859733581543 44.48596572875977 48 40.16666793823242 48 Z M 26.0666675567627 38.60000228881836 L 26.0666675567627 40.16667175292969 C 26.0666675567627 41.92917251586914 25.48072814941406 43.55693054199219 24.49686813354492 44.86667251586914 L 40.16666793823242 44.86667251586914 C 42.75793838500977 44.86667251586914 44.86666870117188 42.75793075561523 44.86666870117188 40.16667175292969 L 44.86666870117188 38.60000228881836 L 26.0666675567627 38.60000228881836 Z M 12.66226768493652 4.133331775665283 C 13.20119762420654 5.059231758117676 13.53333759307861 6.119872093200684 13.53333759307861 7.266672134399414 L 13.53333759307861 40.16667175292969 C 13.53333759307861 42.75793075561523 15.64206695556641 44.86667251586914 18.23333740234375 44.86667251586914 C 20.82459831237793 44.86667251586914 22.9333381652832 42.75793075561523 22.9333381652832 40.16667175292969 L 22.9333381652832 37.03334045410156 C 22.9333381652832 36.16854095458984 23.63519668579102 35.46667098999023 24.49999809265137 35.46667098999023 L 40.16666793823242 35.46667098999023 L 40.16666793823242 28.24277114868164 L 39.75620651245117 28.69083213806152 C 39.46010589599609 29.0151309967041 39.04023742675781 29.20000267028809 38.60000610351562 29.20000267028809 C 38.15976715087891 29.20000267028809 37.73990631103516 29.0151309967041 37.44380569458008 28.69083213806152 L 30.95466804504395 21.59226226806641 C 28.63129806518555 19.05270195007324 28.63129806518555 14.91983222961426 30.95466804504395 12.38027191162109 C 32.1218376159668 11.10343170166016 33.68380737304688 10.40000152587891 35.35543823242188 10.40000152587891 C 36.52260589599609 10.40000152587891 37.63649749755859 10.74310207366943 38.60000610351562 11.38543224334717 C 39.08723831176758 11.05957221984863 39.61520767211914 10.81360149383545 40.16666793823242 10.64753150939941 L 40.16666793823242 5.70000171661377 C 40.16666793823242 4.836771965026855 39.46323776245117 4.133331775665283 38.60000610351562 4.133331775665283 L 12.66226768493652 4.133331775665283 Z M 35.35543823242188 13.53333187103271 C 34.57523727416992 13.53333187103271 33.83419799804688 13.8748722076416 33.26706695556641 14.49370193481445 C 32.03253555297852 15.84417152404785 32.03253555297852 18.12680244445801 33.26706695556641 19.47726249694824 L 38.60000610351562 25.31153106689453 L 43.93293762207031 19.47726249694824 C 45.1674690246582 18.12680244445801 45.1674690246582 15.84417152404785 43.93293762207031 14.49370193481445 C 43.36580657958984 13.8748722076416 42.6247673034668 13.53333187103271 41.84456634521484 13.53333187103271 C 41.06436920166016 13.53333187103271 40.32333755493164 13.8748722076416 39.75776672363281 14.49370193481445 C 39.16400909423828 15.14230155944824 38.03757095336914 15.14230155944824 37.44380569458008 14.49370193481445 C 36.87666702270508 13.8748722076416 36.13563919067383 13.53333187103271 35.35543823242188 13.53333187103271 Z M 7.266667366027832 4.133331775665283 C 5.538637638092041 4.133331775665283 4.133337497711182 5.538631916046143 4.133337497711182 7.266672134399414 L 4.133337497711182 16.66666221618652 L 10.39999771118164 16.66666221618652 L 10.39999771118164 7.266672134399414 C 10.39999771118164 5.538631916046143 8.994697570800781 4.133331775665283 7.266667366027832 4.133331775665283 Z" stroke="none" fill="#fff"/></g><path d="M12.333,13.4h5.333A1.272,1.272,0,0,0,19,12.2,1.272,1.272,0,0,0,17.667,11H12.333A1.272,1.272,0,0,0,11,12.2,1.272,1.272,0,0,0,12.333,13.4Z" transform="translate(6.083 6.071)" fill="#c6ced2"/><path d="M12.25,17.4h7.5a1.2,1.2,0,1,0,0-2.4h-7.5a1.2,1.2,0,1,0,0,2.4Z" transform="translate(6.727 8.5)" fill="#c6ced2"/></g></g></svg>