<svg xmlns="http://www.w3.org/2000/svg" width="18.121" height="20.71" viewBox="0 0 18.121 20.71"> <path d="M0,18.768A1.942,1.942,0,0,0,1.942,20.71H16.18a1.942,1.942,0,0,0,1.942-1.942v-11H0ZM12.944,10.84a.487.487,0,0,1,.485-.485h1.618a.487.487,0,0,1,.485.485v1.618a.487.487,0,0,1-.485.485H13.429a.487.487,0,0,1-.485-.485Zm0,5.177a.487.487,0,0,1,.485-.485h1.618a.487.487,0,0,1,.485.485v1.618a.487.487,0,0,1-.485.485H13.429a.487.487,0,0,1-.485-.485ZM7.766,10.84a.487.487,0,0,1,.485-.485H9.87a.487.487,0,0,1,.485.485v1.618a.487.487,0,0,1-.485.485H8.252a.487.487,0,0,1-.485-.485Zm0,5.177a.487.487,0,0,1,.485-.485H9.87a.487.487,0,0,1,.485.485v1.618a.487.487,0,0,1-.485.485H8.252a.487.487,0,0,1-.485-.485ZM2.589,10.84a.487.487,0,0,1,.485-.485H4.692a.487.487,0,0,1,.485.485v1.618a.487.487,0,0,1-.485.485H3.074a.487.487,0,0,1-.485-.485Zm0,5.177a.487.487,0,0,1,.485-.485H4.692a.487.487,0,0,1,.485.485v1.618a.487.487,0,0,1-.485.485H3.074a.487.487,0,0,1-.485-.485ZM16.18,2.589H14.238V.647A.649.649,0,0,0,13.591,0H12.3a.649.649,0,0,0-.647.647V2.589H6.472V.647A.649.649,0,0,0,5.825,0H4.53a.649.649,0,0,0-.647.647V2.589H1.942A1.942,1.942,0,0,0,0,4.53V6.472H18.121V4.53A1.942,1.942,0,0,0,16.18,2.589Z" fill="#646464"/> </svg>