<svg xmlns="http://www.w3.org/2000/svg" width="21.305" height="13.558" viewBox="0 0 21.305 13.558"> <path d="M16.026,13.311a2.905,2.905,0,1,0-2.905-2.905A2.893,2.893,0,0,0,16.026,13.311Zm-7.747,0a2.905,2.905,0,1,0-2.905-2.905A2.893,2.893,0,0,0,8.279,13.311Zm0,1.937c-2.256,0-6.779,1.133-6.779,3.389v2.421H15.058V18.637C15.058,16.38,10.535,15.247,8.279,15.247Zm7.747,0c-.281,0-.6.019-.939.048a4.087,4.087,0,0,1,1.908,3.341v2.421h5.811V18.637C22.805,16.38,18.283,15.247,16.026,15.247Z" transform="translate(-1.5 -7.5)" fill="#646464"/> </svg>